<mxfile host="Electron" modified="2023-12-18T14:01:50.321Z" agent="Mozilla/5.0 (Windows NT 10.0; Win64; x64) AppleWebKit/537.36 (KHTML, like Gecko) draw.io/22.1.2 Chrome/114.0.5735.289 Electron/25.9.4 Safari/537.36" etag="irWOVjtCiJa-d14KCHP2" version="22.1.2" type="device" pages="4">
  <diagram name="vda-5050-object-types-1" id="9f46799a-70d6-7492-0946-bef42562c5a5">
    <mxGraphModel dx="1434" dy="1744" grid="1" gridSize="10" guides="1" tooltips="1" connect="1" arrows="1" fold="1" page="1" pageScale="1" pageWidth="1600" pageHeight="900" background="#000028" math="0" shadow="0">
      <root>
        <mxCell id="0" />
        <mxCell id="1" parent="0" />
        <mxCell id="42Av7yT8RBMzAfbEtakG-2" value="&lt;p style=&quot;margin: 0px ; margin-top: 4px ; text-align: center&quot;&gt;&lt;i&gt;&amp;lt;&amp;lt;Interface&amp;gt;&amp;gt;&lt;/i&gt;&lt;br&gt;&lt;b&gt;Header&lt;/b&gt;&lt;/p&gt;&lt;hr size=&quot;1&quot;&gt;&lt;p style=&quot;margin: 0px ; margin-left: 4px&quot;&gt;+ headerId: number&lt;br&gt;+ manufacturerName: string&lt;/p&gt;&lt;p style=&quot;margin: 0px ; margin-left: 4px&quot;&gt;+ seralNumber: string&lt;/p&gt;&lt;p style=&quot;margin: 0px ; margin-left: 4px&quot;&gt;+ timestamp: strin&lt;span&gt;g&lt;/span&gt;&lt;/p&gt;&lt;p style=&quot;margin: 0px ; margin-left: 4px&quot;&gt;+ version: string&lt;/p&gt;&lt;hr size=&quot;1&quot;&gt;&lt;p style=&quot;margin: 0px ; margin-left: 4px&quot;&gt;&lt;br&gt;&lt;/p&gt;" style="verticalAlign=top;align=left;overflow=fill;fontSize=12;fontFamily=Helvetica;html=1;fillColor=#e1d5e7;strokeColor=#9673a6;" parent="1" vertex="1">
          <mxGeometry x="10" y="-890" width="160" height="120" as="geometry" />
        </mxCell>
        <mxCell id="Zv5HxTq-UPW77KUt6nTQ-1" value="&lt;p style=&quot;margin: 0px ; margin-top: 4px ; text-align: center&quot;&gt;&lt;i&gt;&amp;lt;&amp;lt;Interface&amp;gt;&amp;gt;&lt;/i&gt;&lt;br&gt;&lt;b&gt;InstantActions&lt;/b&gt;&lt;/p&gt;&lt;hr size=&quot;1&quot;&gt;&lt;p style=&quot;margin: 0px ; margin-left: 4px&quot;&gt;+ instantActions: Action[]&lt;/p&gt;&lt;hr size=&quot;1&quot;&gt;&lt;p style=&quot;margin: 0px ; margin-left: 4px&quot;&gt;&lt;br&gt;&lt;/p&gt;" style="verticalAlign=top;align=left;overflow=fill;fontSize=12;fontFamily=Helvetica;html=1;fillColor=#dae8fc;strokeColor=#6c8ebf;" parent="1" vertex="1">
          <mxGeometry x="210" y="-850" width="148" height="63" as="geometry" />
        </mxCell>
        <mxCell id="Zv5HxTq-UPW77KUt6nTQ-3" value="&lt;p style=&quot;margin: 0px ; margin-top: 4px ; text-align: center&quot;&gt;&lt;i&gt;&amp;lt;&amp;lt;Interface&amp;gt;&amp;gt;&lt;/i&gt;&lt;br&gt;&lt;b&gt;Action&lt;/b&gt;&lt;/p&gt;&lt;hr size=&quot;1&quot;&gt;&lt;p style=&quot;margin: 0px ; margin-left: 4px&quot;&gt;+ actionDescription?: string&lt;br&gt;+ actionId: string&lt;/p&gt;&lt;p style=&quot;margin: 0px ; margin-left: 4px&quot;&gt;+ actionParameters?: ActionParameter[]&lt;/p&gt;&lt;p style=&quot;margin: 0px ; margin-left: 4px&quot;&gt;+ actionType: string&lt;/p&gt;&lt;p style=&quot;margin: 0px ; margin-left: 4px&quot;&gt;+ blockingType: &quot;HARD&quot; | &quot;SOFT&quot; | &quot;NONE&quot;&lt;/p&gt;&lt;hr size=&quot;1&quot;&gt;&lt;p style=&quot;margin: 0px ; margin-left: 4px&quot;&gt;&lt;br&gt;&lt;/p&gt;" style="verticalAlign=top;align=left;overflow=fill;fontSize=12;fontFamily=Helvetica;html=1;fillColor=#EEEEEE;strokeColor=#FFFFFF;fontColor=#1A1A1A;" parent="1" vertex="1">
          <mxGeometry x="398" y="-850" width="240" height="120" as="geometry" />
        </mxCell>
        <mxCell id="Zv5HxTq-UPW77KUt6nTQ-4" value="&lt;p style=&quot;margin: 0px ; margin-top: 4px ; text-align: center&quot;&gt;&lt;i&gt;&amp;lt;&amp;lt;Interface&amp;gt;&amp;gt;&lt;/i&gt;&lt;br&gt;&lt;b&gt;ActionParameter&lt;/b&gt;&lt;/p&gt;&lt;hr size=&quot;1&quot;&gt;&lt;p style=&quot;margin: 0px ; margin-left: 4px&quot;&gt;+ key: string&lt;br&gt;+ value: any[] | boolean | number | string&lt;/p&gt;&lt;hr size=&quot;1&quot;&gt;&lt;p style=&quot;margin: 0px ; margin-left: 4px&quot;&gt;&lt;br&gt;&lt;/p&gt;" style="verticalAlign=top;align=left;overflow=fill;fontSize=12;fontFamily=Helvetica;html=1;fillColor=#EEEEEE;strokeColor=#FFFFFF;fontColor=#1A1A1A;" parent="1" vertex="1">
          <mxGeometry x="678" y="-850" width="230" height="77" as="geometry" />
        </mxCell>
        <mxCell id="Zv5HxTq-UPW77KUt6nTQ-5" value="&lt;p style=&quot;margin: 0px ; margin-top: 4px ; text-align: center&quot;&gt;&lt;i&gt;&amp;lt;&amp;lt;Interface&amp;gt;&amp;gt;&lt;/i&gt;&lt;br&gt;&lt;b&gt;Order&lt;/b&gt;&lt;/p&gt;&lt;hr size=&quot;1&quot;&gt;&lt;p style=&quot;margin: 0px ; margin-left: 4px&quot;&gt;+ edges: Edge[]&lt;br&gt;+ nodes: Node[]&lt;/p&gt;&lt;p style=&quot;margin: 0px ; margin-left: 4px&quot;&gt;+ orderId: string&lt;/p&gt;&lt;p style=&quot;margin: 0px ; margin-left: 4px&quot;&gt;+ orderUpdateId: number&lt;/p&gt;&lt;p style=&quot;margin: 0px ; margin-left: 4px&quot;&gt;+ zoneSetId?: string&lt;/p&gt;&lt;hr size=&quot;1&quot;&gt;&lt;p style=&quot;margin: 0px ; margin-left: 4px&quot;&gt;&lt;br&gt;&lt;/p&gt;" style="verticalAlign=top;align=left;overflow=fill;fontSize=12;fontFamily=Helvetica;html=1;fillColor=#dae8fc;strokeColor=#6c8ebf;" parent="1" vertex="1">
          <mxGeometry x="210" y="-700" width="148" height="120" as="geometry" />
        </mxCell>
        <mxCell id="Zv5HxTq-UPW77KUt6nTQ-6" value="&lt;p style=&quot;margin: 0px ; margin-top: 4px ; text-align: center&quot;&gt;&lt;i&gt;&amp;lt;&amp;lt;Interface&amp;gt;&amp;gt;&lt;/i&gt;&lt;br&gt;&lt;b&gt;Edge&lt;/b&gt;&lt;/p&gt;&lt;hr size=&quot;1&quot;&gt;&lt;p style=&quot;margin: 0px ; margin-left: 4px&quot;&gt;&lt;span&gt;+ edgeId: string&lt;/span&gt;&lt;br&gt;&lt;/p&gt;&lt;p style=&quot;margin: 0px 0px 0px 4px&quot;&gt;+ sequenceId: number&lt;/p&gt;&lt;p style=&quot;margin: 0px ; margin-left: 4px&quot;&gt;+ edgeDescription?: string&lt;/p&gt;&lt;p style=&quot;margin: 0px ; margin-left: 4px&quot;&gt;+ startNodeId: string&lt;/p&gt;&lt;p style=&quot;margin: 0px ; margin-left: 4px&quot;&gt;+ endNodeId: string&lt;/p&gt;&lt;p style=&quot;margin: 0px 0px 0px 4px&quot;&gt;+ actions: Action[]&lt;br&gt;+ direction?: string&lt;/p&gt;&lt;p style=&quot;margin: 0px 0px 0px 4px&quot;&gt;+ distance?: number&lt;/p&gt;&lt;p style=&quot;margin: 0px ; margin-left: 4px&quot;&gt;+ minHeight?: number&lt;/p&gt;&lt;p style=&quot;margin: 0px ; margin-left: 4px&quot;&gt;+ maxHeight?: number&lt;/p&gt;&lt;p style=&quot;margin: 0px ; margin-left: 4px&quot;&gt;+ maxRotationSpeed?: number&lt;/p&gt;&lt;p style=&quot;margin: 0px ; margin-left: 4px&quot;&gt;+ maxSpeed?: number&lt;/p&gt;&lt;p style=&quot;margin: 0px ; margin-left: 4px&quot;&gt;+ orientation?: number&lt;/p&gt;&lt;p style=&quot;margin: 0px ; margin-left: 4px&quot;&gt;+ released: boolean&lt;/p&gt;&lt;p style=&quot;margin: 0px ; margin-left: 4px&quot;&gt;+ rotationAllowed?: boolean&lt;/p&gt;&lt;p style=&quot;margin: 0px ; margin-left: 4px&quot;&gt;+ trajectory?: Trajectory&lt;/p&gt;&lt;hr size=&quot;1&quot;&gt;&lt;p style=&quot;margin: 0px ; margin-left: 4px&quot;&gt;&lt;br&gt;&lt;/p&gt;" style="verticalAlign=top;align=left;overflow=fill;fontSize=12;fontFamily=Helvetica;html=1;fillColor=#EEEEEE;strokeColor=#FFFFFF;fontColor=#1A1A1A;" parent="1" vertex="1">
          <mxGeometry x="636" y="-700" width="180" height="270" as="geometry" />
        </mxCell>
        <mxCell id="Zv5HxTq-UPW77KUt6nTQ-7" value="&lt;p style=&quot;margin: 0px ; margin-top: 4px ; text-align: center&quot;&gt;&lt;i&gt;&amp;lt;&amp;lt;Interface&amp;gt;&amp;gt;&lt;/i&gt;&lt;br&gt;&lt;b&gt;Trajectory&lt;/b&gt;&lt;/p&gt;&lt;hr size=&quot;1&quot;&gt;&lt;p style=&quot;margin: 0px ; margin-left: 4px&quot;&gt;&lt;span&gt;+ controlPoints: ControlPoint[]&lt;/span&gt;&lt;br&gt;&lt;/p&gt;&lt;p style=&quot;margin: 0px 0px 0px 4px&quot;&gt;+ degree: number&lt;/p&gt;&lt;p style=&quot;margin: 0px ; margin-left: 4px&quot;&gt;+ knotVector: number[]&lt;/p&gt;&lt;p style=&quot;margin: 0px ; margin-left: 4px&quot;&gt;&lt;br&gt;&lt;/p&gt;&lt;hr size=&quot;1&quot;&gt;&lt;p style=&quot;margin: 0px ; margin-left: 4px&quot;&gt;&lt;br&gt;&lt;/p&gt;" style="verticalAlign=top;align=left;overflow=fill;fontSize=12;fontFamily=Helvetica;html=1;fillColor=#EEEEEE;strokeColor=#FFFFFF;fontColor=#1A1A1A;" parent="1" vertex="1">
          <mxGeometry x="857" y="-700" width="173" height="90" as="geometry" />
        </mxCell>
        <mxCell id="Zv5HxTq-UPW77KUt6nTQ-8" value="&lt;p style=&quot;margin: 0px ; margin-top: 4px ; text-align: center&quot;&gt;&lt;i&gt;&amp;lt;&amp;lt;Interface&amp;gt;&amp;gt;&lt;/i&gt;&lt;br&gt;&lt;b&gt;ControlPoint&lt;/b&gt;&lt;/p&gt;&lt;hr size=&quot;1&quot;&gt;&lt;p style=&quot;margin: 0px ; margin-left: 4px&quot;&gt;&lt;span&gt;+ orientation?: number&lt;/span&gt;&lt;br&gt;&lt;/p&gt;&lt;p style=&quot;margin: 0px 0px 0px 4px&quot;&gt;+ weight: number&lt;/p&gt;&lt;p style=&quot;margin: 0px ; margin-left: 4px&quot;&gt;+ x: number&lt;/p&gt;&lt;p style=&quot;margin: 0px ; margin-left: 4px&quot;&gt;+ y: number&lt;/p&gt;&lt;hr size=&quot;1&quot;&gt;&lt;p style=&quot;margin: 0px ; margin-left: 4px&quot;&gt;&lt;br&gt;&lt;/p&gt;" style="verticalAlign=top;align=left;overflow=fill;fontSize=12;fontFamily=Helvetica;html=1;fillColor=#EEEEEE;strokeColor=#FFFFFF;fontColor=#1A1A1A;" parent="1" vertex="1">
          <mxGeometry x="857" y="-572" width="140" height="107" as="geometry" />
        </mxCell>
        <mxCell id="Zv5HxTq-UPW77KUt6nTQ-9" value="&lt;p style=&quot;margin: 0px ; margin-top: 4px ; text-align: center&quot;&gt;&lt;i&gt;&amp;lt;&amp;lt;Interface&amp;gt;&amp;gt;&lt;/i&gt;&lt;br&gt;&lt;b&gt;Node&lt;/b&gt;&lt;/p&gt;&lt;hr size=&quot;1&quot;&gt;&lt;p style=&quot;margin: 0px ; margin-left: 4px&quot;&gt;&lt;span&gt;+ nodeId: string&lt;/span&gt;&lt;br&gt;&lt;/p&gt;&lt;p style=&quot;margin: 0px ; margin-left: 4px&quot;&gt;&lt;span&gt;+ sequenceId: number&lt;/span&gt;&lt;/p&gt;&lt;p style=&quot;margin: 0px 0px 0px 4px&quot;&gt;+ nodeDescription?: string&lt;/p&gt;&lt;p style=&quot;margin: 0px ; margin-left: 4px&quot;&gt;+ nodePosition?: NodePosition&lt;/p&gt;&lt;p style=&quot;margin: 0px ; margin-left: 4px&quot;&gt;+ actions: Action[]&lt;/p&gt;&lt;p style=&quot;margin: 0px ; margin-left: 4px&quot;&gt;+ released: boolean&lt;/p&gt;&lt;p style=&quot;margin: 0px ; margin-left: 4px&quot;&gt;&lt;br&gt;&lt;/p&gt;&lt;hr size=&quot;1&quot;&gt;&lt;p style=&quot;margin: 0px ; margin-left: 4px&quot;&gt;&lt;br&gt;&lt;/p&gt;" style="verticalAlign=top;align=left;overflow=fill;fontSize=12;fontFamily=Helvetica;html=1;fillColor=#EEEEEE;strokeColor=#FFFFFF;fontColor=#1A1A1A;" parent="1" vertex="1">
          <mxGeometry x="398" y="-670" width="200" height="130" as="geometry" />
        </mxCell>
        <mxCell id="Zv5HxTq-UPW77KUt6nTQ-11" value="&lt;p style=&quot;margin: 0px ; margin-top: 4px ; text-align: center&quot;&gt;&lt;i&gt;&amp;lt;&amp;lt;Interface&amp;gt;&amp;gt;&lt;/i&gt;&lt;br&gt;&lt;b&gt;NodePosition&lt;/b&gt;&lt;/p&gt;&lt;hr size=&quot;1&quot;&gt;&lt;p style=&quot;margin: 0px ; margin-left: 4px&quot;&gt;&lt;span&gt;+ x: number&lt;/span&gt;&lt;/p&gt;&lt;p style=&quot;margin: 0px ; margin-left: 4px&quot;&gt;&lt;span&gt;+ y: number&lt;/span&gt;&lt;/p&gt;&lt;p style=&quot;margin: 0px ; margin-left: 4px&quot;&gt;&lt;span&gt;+ theta: number&lt;/span&gt;&lt;/p&gt;&lt;p style=&quot;margin: 0px ; margin-left: 4px&quot;&gt;+ mapId: string&lt;span&gt;&lt;br&gt;&lt;/span&gt;&lt;/p&gt;&lt;p style=&quot;margin: 0px ; margin-left: 4px&quot;&gt;+ mapDescription?: string&lt;br&gt;&lt;/p&gt;&lt;p style=&quot;margin: 0px ; margin-left: 4px&quot;&gt;+ allowedDeviationXy?: number&lt;span&gt;&lt;br&gt;&lt;/span&gt;&lt;/p&gt;&lt;p style=&quot;margin: 0px ; margin-left: 4px&quot;&gt;&lt;span&gt;+ allowedDeviationTheta?: number&lt;/span&gt;&lt;/p&gt;&lt;p style=&quot;margin: 0px ; margin-left: 4px&quot;&gt;&lt;br&gt;&lt;/p&gt;&lt;p style=&quot;margin: 0px ; margin-left: 4px&quot;&gt;&lt;br&gt;&lt;/p&gt;&lt;hr size=&quot;1&quot;&gt;&lt;p style=&quot;margin: 0px ; margin-left: 4px&quot;&gt;&lt;br&gt;&lt;/p&gt;" style="verticalAlign=top;align=left;overflow=fill;fontSize=12;fontFamily=Helvetica;html=1;fillColor=#EEEEEE;strokeColor=#FFFFFF;fontColor=#1A1A1A;" parent="1" vertex="1">
          <mxGeometry x="398" y="-510" width="200" height="150" as="geometry" />
        </mxCell>
        <mxCell id="VUPyvv9zkwqQNf1Xiyf6-30" value="Extends" style="endArrow=block;endSize=16;endFill=0;html=1;shadow=0;labelBackgroundColor=#182E3E;strokeColor=#FFFFFF;fontColor=#FFFFFF;entryX=0.5;entryY=1;entryDx=0;entryDy=0;exitX=0;exitY=0.5;exitDx=0;exitDy=0;" parent="1" source="Zv5HxTq-UPW77KUt6nTQ-5" target="42Av7yT8RBMzAfbEtakG-2" edge="1">
          <mxGeometry x="0.0892" y="-11" width="160" relative="1" as="geometry">
            <mxPoint x="42" y="-570" as="sourcePoint" />
            <mxPoint x="70" y="-769" as="targetPoint" />
            <Array as="points">
              <mxPoint x="90" y="-640" />
            </Array>
            <mxPoint as="offset" />
          </mxGeometry>
        </mxCell>
        <mxCell id="VUPyvv9zkwqQNf1Xiyf6-31" value="Extends" style="endArrow=block;endSize=16;endFill=0;html=1;shadow=0;exitX=0.5;exitY=0;exitDx=0;exitDy=0;entryX=1;entryY=0.25;entryDx=0;entryDy=0;labelBackgroundColor=#182E3E;strokeColor=#FFFFFF;fontColor=#FFFFFF;" parent="1" source="Zv5HxTq-UPW77KUt6nTQ-1" target="42Av7yT8RBMzAfbEtakG-2" edge="1">
          <mxGeometry width="160" relative="1" as="geometry">
            <mxPoint x="240" y="-870" as="sourcePoint" />
            <mxPoint x="400" y="-870" as="targetPoint" />
            <Array as="points">
              <mxPoint x="284" y="-860" />
            </Array>
          </mxGeometry>
        </mxCell>
        <mxCell id="-e1qsJ6uSgMBdoQPTSBa-3" value="Use" style="endArrow=open;endSize=12;dashed=1;html=1;labelBackgroundColor=#182E3E;strokeColor=#FFFFFF;fontColor=#FFFFFF;exitX=0.75;exitY=1;exitDx=0;exitDy=0;" parent="1" edge="1">
          <mxGeometry x="-0.1771" y="16" width="160" relative="1" as="geometry">
            <mxPoint x="358" y="-797.5" as="sourcePoint" />
            <mxPoint x="400" y="-798" as="targetPoint" />
            <mxPoint as="offset" />
          </mxGeometry>
        </mxCell>
        <mxCell id="-e1qsJ6uSgMBdoQPTSBa-4" value="Use" style="endArrow=open;endSize=12;dashed=1;html=1;labelBackgroundColor=#182E3E;strokeColor=#FFFFFF;fontColor=#FFFFFF;entryX=-0.004;entryY=0.623;entryDx=0;entryDy=0;entryPerimeter=0;" parent="1" edge="1">
          <mxGeometry x="-0.1765" y="18" width="160" relative="1" as="geometry">
            <mxPoint x="636" y="-791" as="sourcePoint" />
            <mxPoint x="677.0799999999999" y="-791.029" as="targetPoint" />
            <mxPoint as="offset" />
          </mxGeometry>
        </mxCell>
        <mxCell id="-e1qsJ6uSgMBdoQPTSBa-5" value="Use" style="endArrow=open;endSize=12;dashed=1;html=1;labelBackgroundColor=#182E3E;strokeColor=#FFFFFF;fontColor=#FFFFFF;exitX=0.75;exitY=1;exitDx=0;exitDy=0;entryX=-0.006;entryY=0.074;entryDx=0;entryDy=0;entryPerimeter=0;" parent="1" target="Zv5HxTq-UPW77KUt6nTQ-6" edge="1">
          <mxGeometry x="-0.1771" y="16" width="160" relative="1" as="geometry">
            <mxPoint x="358" y="-679.5" as="sourcePoint" />
            <mxPoint x="400" y="-680" as="targetPoint" />
            <mxPoint as="offset" />
          </mxGeometry>
        </mxCell>
        <mxCell id="-e1qsJ6uSgMBdoQPTSBa-6" value="Use" style="endArrow=open;endSize=12;dashed=1;html=1;labelBackgroundColor=#182E3E;strokeColor=#FFFFFF;fontColor=#FFFFFF;exitX=0.75;exitY=1;exitDx=0;exitDy=0;" parent="1" edge="1">
          <mxGeometry x="-0.1771" y="16" width="160" relative="1" as="geometry">
            <mxPoint x="358" y="-632.5" as="sourcePoint" />
            <mxPoint x="400" y="-633" as="targetPoint" />
            <mxPoint as="offset" />
          </mxGeometry>
        </mxCell>
        <mxCell id="-e1qsJ6uSgMBdoQPTSBa-7" value="Use" style="endArrow=open;endSize=12;dashed=1;html=1;labelBackgroundColor=#182E3E;strokeColor=#FFFFFF;fontColor=#FFFFFF;exitX=0.75;exitY=1;exitDx=0;exitDy=0;" parent="1" edge="1">
          <mxGeometry x="-0.1771" y="16" width="160" relative="1" as="geometry">
            <mxPoint x="816" y="-639.5" as="sourcePoint" />
            <mxPoint x="858" y="-640" as="targetPoint" />
            <mxPoint as="offset" />
          </mxGeometry>
        </mxCell>
        <mxCell id="-e1qsJ6uSgMBdoQPTSBa-8" value="Use" style="endArrow=open;endSize=12;dashed=1;html=1;labelBackgroundColor=#182E3E;strokeColor=#FFFFFF;fontColor=#FFFFFF;entryX=0.443;entryY=-0.009;entryDx=0;entryDy=0;entryPerimeter=0;" parent="1" target="Zv5HxTq-UPW77KUt6nTQ-8" edge="1">
          <mxGeometry x="-0.1771" y="16" width="160" relative="1" as="geometry">
            <mxPoint x="919" y="-609" as="sourcePoint" />
            <mxPoint x="964.5" y="-610" as="targetPoint" />
            <mxPoint as="offset" />
          </mxGeometry>
        </mxCell>
        <mxCell id="-e1qsJ6uSgMBdoQPTSBa-10" value="Use" style="endArrow=open;endSize=12;dashed=1;html=1;labelBackgroundColor=#182E3E;strokeColor=#FFFFFF;fontColor=#FFFFFF;entryX=0.5;entryY=0;entryDx=0;entryDy=0;exitX=0.5;exitY=1;exitDx=0;exitDy=0;" parent="1" source="Zv5HxTq-UPW77KUt6nTQ-9" target="Zv5HxTq-UPW77KUt6nTQ-11" edge="1">
          <mxGeometry x="-0.1771" y="16" width="160" relative="1" as="geometry">
            <mxPoint x="929" y="-560" as="sourcePoint" />
            <mxPoint x="929.02" y="-523.963" as="targetPoint" />
            <mxPoint as="offset" />
          </mxGeometry>
        </mxCell>
        <mxCell id="-e1qsJ6uSgMBdoQPTSBa-11" value="Use" style="endArrow=open;endSize=12;dashed=1;html=1;labelBackgroundColor=#182E3E;strokeColor=#FFFFFF;fontColor=#FFFFFF;entryX=1;entryY=0.75;entryDx=0;entryDy=0;exitX=0.25;exitY=0;exitDx=0;exitDy=0;" parent="1" source="Zv5HxTq-UPW77KUt6nTQ-6" target="Zv5HxTq-UPW77KUt6nTQ-3" edge="1">
          <mxGeometry x="-0.1771" y="16" width="160" relative="1" as="geometry">
            <mxPoint x="929" y="-599" as="sourcePoint" />
            <mxPoint x="929.02" y="-562.963" as="targetPoint" />
            <mxPoint as="offset" />
            <Array as="points">
              <mxPoint x="681" y="-760" />
            </Array>
          </mxGeometry>
        </mxCell>
        <mxCell id="-e1qsJ6uSgMBdoQPTSBa-12" value="Use" style="endArrow=open;endSize=12;dashed=1;html=1;labelBackgroundColor=#182E3E;strokeColor=#FFFFFF;fontColor=#FFFFFF;entryX=0.625;entryY=1.008;entryDx=0;entryDy=0;entryPerimeter=0;exitX=0.75;exitY=0;exitDx=0;exitDy=0;" parent="1" source="Zv5HxTq-UPW77KUt6nTQ-9" target="Zv5HxTq-UPW77KUt6nTQ-3" edge="1">
          <mxGeometry x="0.0163" y="18" width="160" relative="1" as="geometry">
            <mxPoint x="939" y="-589" as="sourcePoint" />
            <mxPoint x="939.02" y="-552.963" as="targetPoint" />
            <mxPoint as="offset" />
          </mxGeometry>
        </mxCell>
      </root>
    </mxGraphModel>
  </diagram>
  <diagram id="VI7TGiwbO8JHoI5zChh4" name="vda-5050-object-types-2">
    <mxGraphModel dx="3034" dy="1744" grid="1" gridSize="10" guides="1" tooltips="1" connect="1" arrows="1" fold="1" page="1" pageScale="1" pageWidth="1600" pageHeight="900" background="#000028" math="0" shadow="0">
      <root>
        <mxCell id="EJkPmVfQsPTjMEE44-UA-0" />
        <mxCell id="EJkPmVfQsPTjMEE44-UA-1" parent="EJkPmVfQsPTjMEE44-UA-0" />
        <mxCell id="EJkPmVfQsPTjMEE44-UA-2" value="&lt;p style=&quot;margin: 0px ; margin-top: 4px ; text-align: center&quot;&gt;&lt;i&gt;&amp;lt;&amp;lt;Interface&amp;gt;&amp;gt;&lt;/i&gt;&lt;br&gt;&lt;b&gt;State&lt;/b&gt;&lt;/p&gt;&lt;hr size=&quot;1&quot;&gt;&lt;p style=&quot;margin: 0px ; margin-left: 4px&quot;&gt;&lt;span&gt;+ actionStates: ActionState[]&lt;/span&gt;&lt;br&gt;&lt;/p&gt;&lt;p style=&quot;margin: 0px ; margin-left: 4px&quot;&gt;&lt;span&gt;+ nodeStates: NodeState[]&lt;/span&gt;&lt;/p&gt;&lt;p style=&quot;margin: 0px ; margin-left: 4px&quot;&gt;&lt;span&gt;+ edgeStates: EdgeState[]&lt;/span&gt;&lt;/p&gt;&lt;p style=&quot;margin: 0px ; margin-left: 4px&quot;&gt;&lt;span&gt;+ errors: Error[]&lt;/span&gt;&lt;/p&gt;&lt;p style=&quot;margin: 0px ; margin-left: 4px&quot;&gt;&lt;span&gt;+ information?: Information[]&lt;/span&gt;&lt;/p&gt;&lt;p style=&quot;margin: 0px ; margin-left: 4px&quot;&gt;&lt;span&gt;+ orderId: string&lt;/span&gt;&lt;/p&gt;&lt;p style=&quot;margin: 0px ; margin-left: 4px&quot;&gt;&lt;span&gt;+ orderUpdateId: number&lt;/span&gt;&lt;/p&gt;&lt;p style=&quot;margin: 0px ; margin-left: 4px&quot;&gt;&lt;span&gt;+ lastNodeId: string&lt;/span&gt;&lt;/p&gt;&lt;p style=&quot;margin: 0px ; margin-left: 4px&quot;&gt;&lt;span&gt;+ lastNodeSequenceid: number&lt;/span&gt;&lt;/p&gt;&lt;p style=&quot;margin: 0px 0px 0px 4px&quot;&gt;+ agvPosition?: AgvPosition&lt;/p&gt;&lt;p style=&quot;margin: 0px 0px 0px 4px&quot;&gt;+ velocity?: Velocity&lt;/p&gt;&lt;p style=&quot;margin: 0px ; margin-left: 4px&quot;&gt;+ batteryState?: BatteryState&lt;/p&gt;&lt;p style=&quot;margin: 0px ; margin-left: 4px&quot;&gt;+ distanceSinceLastNode?: number&lt;/p&gt;&lt;p style=&quot;margin: 0px ; margin-left: 4px&quot;&gt;+ driving: boolean&lt;/p&gt;&lt;p style=&quot;margin: 0px ; margin-left: 4px&quot;&gt;+ paused?: boolean&lt;/p&gt;&lt;p style=&quot;margin: 0px ; margin-left: 4px&quot;&gt;+ operatingMode: &quot;AUTOMATIC&quot; | &quot;MANUAL&quot; |&amp;nbsp;&lt;br&gt;&amp;nbsp; &amp;nbsp; &amp;nbsp;&quot;SEMIAUTOMATIC&quot; | &quot;SERVICE&quot; | &quot;TEACHIN&quot;&lt;/p&gt;&lt;p style=&quot;margin: 0px ; margin-left: 4px&quot;&gt;+ safetyState: SafetyStatus&lt;/p&gt;&lt;p style=&quot;margin: 0px ; margin-left: 4px&quot;&gt;+ loads: Load[]&lt;/p&gt;&lt;p style=&quot;margin: 0px ; margin-left: 4px&quot;&gt;+ newBaseRequest?: boolean&lt;/p&gt;&lt;p style=&quot;margin: 0px ; margin-left: 4px&quot;&gt;+ zoneSetId?: string&lt;/p&gt;&lt;hr size=&quot;1&quot;&gt;&lt;p style=&quot;margin: 0px ; margin-left: 4px&quot;&gt;&lt;br&gt;&lt;/p&gt;" style="verticalAlign=top;align=left;overflow=fill;fontSize=12;fontFamily=Helvetica;html=1;fillColor=#dae8fc;strokeColor=#6c8ebf;" parent="EJkPmVfQsPTjMEE44-UA-1" vertex="1">
          <mxGeometry x="200" y="-890" width="280" height="340" as="geometry" />
        </mxCell>
        <mxCell id="EJkPmVfQsPTjMEE44-UA-3" value="&lt;p style=&quot;margin: 0px ; margin-top: 4px ; text-align: center&quot;&gt;&lt;i&gt;&amp;lt;&amp;lt;Interface&amp;gt;&amp;gt;&lt;/i&gt;&lt;br&gt;&lt;b&gt;ActionState&lt;/b&gt;&lt;/p&gt;&lt;hr size=&quot;1&quot;&gt;&lt;p style=&quot;margin: 0px ; margin-left: 4px&quot;&gt;&lt;span&gt;+ actionId: string&lt;/span&gt;&lt;/p&gt;&lt;p style=&quot;margin: 0px ; margin-left: 4px&quot;&gt;+ actionType: string&lt;span&gt;&lt;br&gt;&lt;/span&gt;&lt;/p&gt;&lt;p style=&quot;margin: 0px ; margin-left: 4px&quot;&gt;&lt;span&gt;+ actionDescription?: string&lt;/span&gt;&lt;/p&gt;&lt;p style=&quot;margin: 0px ; margin-left: 4px&quot;&gt;&lt;span&gt;+ actionStatus: ActionStatus&lt;/span&gt;&lt;/p&gt;&lt;p style=&quot;margin: 0px ; margin-left: 4px&quot;&gt;+ resultDescription?: string&lt;/p&gt;&lt;p style=&quot;margin: 0px ; margin-left: 4px&quot;&gt;&lt;/p&gt;&lt;p style=&quot;margin: 0px ; margin-left: 4px&quot;&gt;&lt;br&gt;&lt;/p&gt;" style="verticalAlign=top;align=left;overflow=fill;fontSize=12;fontFamily=Helvetica;html=1;fillColor=#EEEEEE;strokeColor=#FFFFFF;fontColor=#1A1A1A;" parent="EJkPmVfQsPTjMEE44-UA-1" vertex="1">
          <mxGeometry x="538" y="-890" width="185" height="120" as="geometry" />
        </mxCell>
        <mxCell id="EJkPmVfQsPTjMEE44-UA-4" value="&lt;p style=&quot;margin: 0px ; margin-top: 4px ; text-align: center&quot;&gt;&lt;i&gt;&amp;lt;&amp;lt;Enumeration&amp;gt;&amp;gt;&lt;/i&gt;&lt;br&gt;&lt;b&gt;ActionStatus&lt;/b&gt;&lt;/p&gt;&lt;hr size=&quot;1&quot;&gt;&lt;p style=&quot;margin: 0px ; margin-left: 4px&quot;&gt;WAITING&lt;br&gt;INITIALIZING&lt;/p&gt;&lt;p style=&quot;margin: 0px ; margin-left: 4px&quot;&gt;RUNNING&lt;/p&gt;&lt;p style=&quot;margin: 0px ; margin-left: 4px&quot;&gt;PAUSED&lt;/p&gt;&lt;p style=&quot;margin: 0px ; margin-left: 4px&quot;&gt;FINISHED&lt;span&gt;&lt;br&gt;&lt;/span&gt;&lt;/p&gt;&lt;p style=&quot;margin: 0px ; margin-left: 4px&quot;&gt;FAILED&lt;/p&gt;&lt;p style=&quot;margin: 0px ; margin-left: 4px&quot;&gt;&lt;/p&gt;&lt;p style=&quot;margin: 0px ; margin-left: 4px&quot;&gt;&lt;br&gt;&lt;/p&gt;" style="verticalAlign=top;align=left;overflow=fill;fontSize=12;fontFamily=Helvetica;html=1;fillColor=#EEEEEE;strokeColor=#FFFFFF;fontColor=#1A1A1A;" parent="EJkPmVfQsPTjMEE44-UA-1" vertex="1">
          <mxGeometry x="743" y="-890" width="110" height="130" as="geometry" />
        </mxCell>
        <mxCell id="EJkPmVfQsPTjMEE44-UA-5" value="&lt;p style=&quot;margin: 0px ; margin-top: 4px ; text-align: center&quot;&gt;&lt;i&gt;&amp;lt;&amp;lt;Interface&amp;gt;&amp;gt;&lt;/i&gt;&lt;br&gt;&lt;b&gt;AgvPosition&lt;/b&gt;&lt;/p&gt;&lt;hr size=&quot;1&quot;&gt;&lt;p style=&quot;margin: 0px 0px 0px 4px&quot;&gt;+ x: number&lt;/p&gt;&lt;p style=&quot;margin: 0px 0px 0px 4px&quot;&gt;+ y: number&lt;/p&gt;&lt;p style=&quot;margin: 0px ; margin-left: 4px&quot;&gt;&lt;span&gt;+ theta: number&lt;/span&gt;&lt;/p&gt;&lt;p style=&quot;margin: 0px ; margin-left: 4px&quot;&gt;+ mapId: string&lt;span&gt;&lt;br&gt;&lt;/span&gt;&lt;/p&gt;&lt;p style=&quot;margin: 0px ; margin-left: 4px&quot;&gt;+ mapDescription?: string&lt;br&gt;&lt;/p&gt;&lt;p style=&quot;margin: 0px ; margin-left: 4px&quot;&gt;+ positionInitialized: boolean&lt;/p&gt;&lt;p style=&quot;margin: 0px ; margin-left: 4px&quot;&gt;+ localizationScore?: number&lt;/p&gt;&lt;p style=&quot;margin: 0px ; margin-left: 4px&quot;&gt;+ deviationRange?: number&lt;/p&gt;" style="verticalAlign=top;align=left;overflow=fill;fontSize=12;fontFamily=Helvetica;html=1;fillColor=#EEEEEE;strokeColor=#FFFFFF;fontColor=#1A1A1A;" parent="EJkPmVfQsPTjMEE44-UA-1" vertex="1">
          <mxGeometry x="538" y="-482" width="160" height="160" as="geometry" />
        </mxCell>
        <mxCell id="EJkPmVfQsPTjMEE44-UA-6" value="&lt;p style=&quot;margin: 0px ; margin-top: 4px ; text-align: center&quot;&gt;&lt;i&gt;&amp;lt;&amp;lt;Interface&amp;gt;&amp;gt;&lt;/i&gt;&lt;br&gt;&lt;b&gt;BatteryState&lt;/b&gt;&lt;/p&gt;&lt;hr size=&quot;1&quot;&gt;&lt;p style=&quot;margin: 0px ; margin-left: 4px&quot;&gt;&lt;span&gt;+ batteryCharge: number&lt;/span&gt;&lt;/p&gt;&lt;p style=&quot;margin: 0px ; margin-left: 4px&quot;&gt;&lt;span&gt;+ batteryHealth?: number&lt;/span&gt;&lt;/p&gt;&lt;p style=&quot;margin: 0px ; margin-left: 4px&quot;&gt;&lt;span&gt;+ batteryVoltage?: number&lt;/span&gt;&lt;/p&gt;&lt;p style=&quot;margin: 0px ; margin-left: 4px&quot;&gt;&lt;span&gt;+ charging: boolean&lt;/span&gt;&lt;/p&gt;&lt;p style=&quot;margin: 0px ; margin-left: 4px&quot;&gt;&lt;span&gt;+ reach?: number&lt;/span&gt;&lt;/p&gt;" style="verticalAlign=top;align=left;overflow=fill;fontSize=12;fontFamily=Helvetica;html=1;fillColor=#EEEEEE;strokeColor=#FFFFFF;fontColor=#1A1A1A;" parent="EJkPmVfQsPTjMEE44-UA-1" vertex="1">
          <mxGeometry x="1003" y="-735" width="150" height="120" as="geometry" />
        </mxCell>
        <mxCell id="EJkPmVfQsPTjMEE44-UA-7" value="&lt;p style=&quot;margin: 0px ; margin-top: 4px ; text-align: center&quot;&gt;&lt;i&gt;&amp;lt;&amp;lt;Interface&amp;gt;&amp;gt;&lt;/i&gt;&lt;br&gt;&lt;b&gt;EdgeState&lt;/b&gt;&lt;/p&gt;&lt;hr size=&quot;1&quot;&gt;&lt;p style=&quot;margin: 0px ; margin-left: 4px&quot;&gt;&lt;span&gt;+ edgeId: string&lt;/span&gt;&lt;br&gt;&lt;/p&gt;&lt;p style=&quot;margin: 0px 0px 0px 4px&quot;&gt;+ sequenceId: number&lt;/p&gt;&lt;p style=&quot;margin: 0px ; margin-left: 4px&quot;&gt;+ edgeDescription?: string&lt;/p&gt;&lt;p style=&quot;margin: 0px ; margin-left: 4px&quot;&gt;+ released: boolean&lt;/p&gt;&lt;p style=&quot;margin: 0px ; margin-left: 4px&quot;&gt;+ trajectory?: Trajectory&lt;/p&gt;&lt;hr size=&quot;1&quot;&gt;&lt;p style=&quot;margin: 0px ; margin-left: 4px&quot;&gt;&lt;br&gt;&lt;/p&gt;" style="verticalAlign=top;align=left;overflow=fill;fontSize=12;fontFamily=Helvetica;html=1;fillColor=#EEEEEE;strokeColor=#FFFFFF;fontColor=#1A1A1A;" parent="EJkPmVfQsPTjMEE44-UA-1" vertex="1">
          <mxGeometry x="1093" y="-890" width="160" height="120" as="geometry" />
        </mxCell>
        <mxCell id="EJkPmVfQsPTjMEE44-UA-8" value="&lt;p style=&quot;margin: 0px ; margin-top: 4px ; text-align: center&quot;&gt;&lt;i&gt;&amp;lt;&amp;lt;Interface&amp;gt;&amp;gt;&lt;/i&gt;&lt;br&gt;&lt;b&gt;NodeState&lt;/b&gt;&lt;/p&gt;&lt;hr size=&quot;1&quot;&gt;&lt;p style=&quot;margin: 0px ; margin-left: 4px&quot;&gt;&lt;span&gt;+ nodeId: string&lt;/span&gt;&lt;br&gt;&lt;/p&gt;&lt;p style=&quot;margin: 0px ; margin-left: 4px&quot;&gt;&lt;span&gt;+ sequenceId: number&lt;/span&gt;&lt;/p&gt;&lt;p style=&quot;margin: 0px 0px 0px 4px&quot;&gt;+ nodeDescription?: string&lt;/p&gt;&lt;p style=&quot;margin: 0px ; margin-left: 4px&quot;&gt;+ nodePosition?: NodePosition&lt;/p&gt;&lt;p style=&quot;margin: 0px ; margin-left: 4px&quot;&gt;+ released: boolean&lt;/p&gt;&lt;p style=&quot;margin: 0px ; margin-left: 4px&quot;&gt;&lt;br&gt;&lt;/p&gt;&lt;hr size=&quot;1&quot;&gt;&lt;p style=&quot;margin: 0px ; margin-left: 4px&quot;&gt;&lt;br&gt;&lt;/p&gt;" style="verticalAlign=top;align=left;overflow=fill;fontSize=12;fontFamily=Helvetica;html=1;fillColor=#EEEEEE;strokeColor=#FFFFFF;fontColor=#1A1A1A;" parent="EJkPmVfQsPTjMEE44-UA-1" vertex="1">
          <mxGeometry x="880.5" y="-890" width="185" height="120" as="geometry" />
        </mxCell>
        <mxCell id="EJkPmVfQsPTjMEE44-UA-9" value="&lt;p style=&quot;margin: 0px ; margin-top: 4px ; text-align: center&quot;&gt;&lt;i&gt;&amp;lt;&amp;lt;Interface&amp;gt;&amp;gt;&lt;/i&gt;&lt;br&gt;&lt;b&gt;Error&lt;/b&gt;&lt;/p&gt;&lt;hr size=&quot;1&quot;&gt;&lt;p style=&quot;margin: 0px ; margin-left: 4px&quot;&gt;&lt;span&gt;+ errorType: string&lt;/span&gt;&lt;br&gt;&lt;/p&gt;&lt;p style=&quot;margin: 0px ; margin-left: 4px&quot;&gt;&lt;span&gt;+ errorLevel: &quot;WARNING&quot; | &quot;FATAL&quot;&lt;/span&gt;&lt;/p&gt;&lt;p style=&quot;margin: 0px 0px 0px 4px&quot;&gt;+ errorDescription?: string&lt;/p&gt;&lt;p style=&quot;margin: 0px ; margin-left: 4px&quot;&gt;+ errorReferences?: ErrorReference[]&lt;/p&gt;&lt;p style=&quot;margin: 0px ; margin-left: 4px&quot;&gt;&lt;br&gt;&lt;/p&gt;&lt;hr size=&quot;1&quot;&gt;&lt;p style=&quot;margin: 0px ; margin-left: 4px&quot;&gt;&lt;br&gt;&lt;/p&gt;" style="verticalAlign=top;align=left;overflow=fill;fontSize=12;fontFamily=Helvetica;html=1;fillColor=#EEEEEE;strokeColor=#FFFFFF;fontColor=#1A1A1A;" parent="EJkPmVfQsPTjMEE44-UA-1" vertex="1">
          <mxGeometry x="538" y="-735" width="210" height="110" as="geometry" />
        </mxCell>
        <mxCell id="EJkPmVfQsPTjMEE44-UA-10" value="&lt;p style=&quot;margin: 0px ; margin-top: 4px ; text-align: center&quot;&gt;&lt;i&gt;&amp;lt;&amp;lt;Interface&amp;gt;&amp;gt;&lt;/i&gt;&lt;br&gt;&lt;b&gt;ErrorReference&lt;/b&gt;&lt;/p&gt;&lt;hr size=&quot;1&quot;&gt;&lt;p style=&quot;margin: 0px ; margin-left: 4px&quot;&gt;&lt;span&gt;+ referenceKey: string&lt;/span&gt;&lt;br&gt;&lt;/p&gt;&lt;p style=&quot;margin: 0px ; margin-left: 4px&quot;&gt;&lt;span&gt;+ referenceValue: string&lt;/span&gt;&lt;/p&gt;" style="verticalAlign=top;align=left;overflow=fill;fontSize=12;fontFamily=Helvetica;html=1;fillColor=#EEEEEE;strokeColor=#FFFFFF;fontColor=#1A1A1A;" parent="EJkPmVfQsPTjMEE44-UA-1" vertex="1">
          <mxGeometry x="538" y="-592" width="210" height="80" as="geometry" />
        </mxCell>
        <mxCell id="EJkPmVfQsPTjMEE44-UA-11" value="&lt;p style=&quot;margin: 0px ; margin-top: 4px ; text-align: center&quot;&gt;&lt;i&gt;&amp;lt;&amp;lt;Interface&amp;gt;&amp;gt;&lt;/i&gt;&lt;br&gt;&lt;b&gt;Information&lt;/b&gt;&lt;/p&gt;&lt;hr size=&quot;1&quot;&gt;&lt;p style=&quot;margin: 0px ; margin-left: 4px&quot;&gt;&lt;span&gt;+ infoType: string&lt;/span&gt;&lt;br&gt;&lt;/p&gt;&lt;p style=&quot;margin: 0px ; margin-left: 4px&quot;&gt;&lt;span&gt;+ infoLevel: &quot;DEBUG&quot; | &quot;INFO&quot;&lt;/span&gt;&lt;/p&gt;&lt;p style=&quot;margin: 0px 0px 0px 4px&quot;&gt;+ infoDescription?: string&lt;/p&gt;&lt;p style=&quot;margin: 0px ; margin-left: 4px&quot;&gt;+ infoReferences?: ErrorReference[]&lt;/p&gt;&lt;p style=&quot;margin: 0px ; margin-left: 4px&quot;&gt;&lt;br&gt;&lt;/p&gt;&lt;hr size=&quot;1&quot;&gt;&lt;p style=&quot;margin: 0px ; margin-left: 4px&quot;&gt;&lt;br&gt;&lt;/p&gt;" style="verticalAlign=top;align=left;overflow=fill;fontSize=12;fontFamily=Helvetica;html=1;fillColor=#EEEEEE;strokeColor=#FFFFFF;fontColor=#1A1A1A;" parent="EJkPmVfQsPTjMEE44-UA-1" vertex="1">
          <mxGeometry x="773" y="-735" width="200" height="110" as="geometry" />
        </mxCell>
        <mxCell id="EJkPmVfQsPTjMEE44-UA-12" value="&lt;p style=&quot;margin: 0px ; margin-top: 4px ; text-align: center&quot;&gt;&lt;i&gt;&amp;lt;&amp;lt;Interface&amp;gt;&amp;gt;&lt;/i&gt;&lt;br&gt;&lt;b&gt;InfoReference&lt;/b&gt;&lt;/p&gt;&lt;hr size=&quot;1&quot;&gt;&lt;p style=&quot;margin: 0px ; margin-left: 4px&quot;&gt;&lt;span&gt;+ referenceKey: string&lt;/span&gt;&lt;br&gt;&lt;/p&gt;&lt;p style=&quot;margin: 0px ; margin-left: 4px&quot;&gt;&lt;span&gt;+ referenceValue: string&lt;/span&gt;&lt;/p&gt;" style="verticalAlign=top;align=left;overflow=fill;fontSize=12;fontFamily=Helvetica;html=1;fillColor=#EEEEEE;strokeColor=#FFFFFF;fontColor=#1A1A1A;" parent="EJkPmVfQsPTjMEE44-UA-1" vertex="1">
          <mxGeometry x="773" y="-592" width="200" height="80" as="geometry" />
        </mxCell>
        <mxCell id="EJkPmVfQsPTjMEE44-UA-13" value="&lt;p style=&quot;margin: 0px ; margin-top: 4px ; text-align: center&quot;&gt;&lt;i&gt;&amp;lt;&amp;lt;Interface&amp;gt;&amp;gt;&lt;/i&gt;&lt;br&gt;&lt;b&gt;Load&lt;/b&gt;&lt;/p&gt;&lt;hr size=&quot;1&quot;&gt;&lt;p style=&quot;margin: 0px 0px 0px 4px&quot;&gt;+ loadId?: string&lt;/p&gt;&lt;p style=&quot;margin: 0px 0px 0px 4px&quot;&gt;+ loadType?: string&lt;/p&gt;&lt;p style=&quot;margin: 0px ; margin-left: 4px&quot;&gt;&lt;span&gt;+ loadPosition?: string&lt;/span&gt;&lt;/p&gt;&lt;p style=&quot;margin: 0px ; margin-left: 4px&quot;&gt;+ weight?: string&lt;span&gt;&lt;br&gt;&lt;/span&gt;&lt;/p&gt;&lt;p style=&quot;margin: 0px ; margin-left: 4px&quot;&gt;+ loadDimensIons?: LoadDimensions&lt;br&gt;&lt;/p&gt;&lt;p style=&quot;margin: 0px ; margin-left: 4px&quot;&gt;+ boundingBoxReference?: BoundingBoxReference&lt;/p&gt;" style="verticalAlign=top;align=left;overflow=fill;fontSize=12;fontFamily=Helvetica;html=1;fillColor=#EEEEEE;strokeColor=#FFFFFF;fontColor=#1A1A1A;" parent="EJkPmVfQsPTjMEE44-UA-1" vertex="1">
          <mxGeometry x="1003" y="-572" width="285" height="130" as="geometry" />
        </mxCell>
        <mxCell id="EJkPmVfQsPTjMEE44-UA-14" value="&lt;p style=&quot;margin: 0px ; margin-top: 4px ; text-align: center&quot;&gt;&lt;i&gt;&amp;lt;&amp;lt;Interface&amp;gt;&amp;gt;&lt;/i&gt;&lt;br&gt;&lt;b&gt;LoadDimensions&lt;/b&gt;&lt;/p&gt;&lt;hr size=&quot;1&quot;&gt;&lt;p style=&quot;margin: 0px 0px 0px 4px&quot;&gt;+ width: number&lt;/p&gt;&lt;p style=&quot;margin: 0px 0px 0px 4px&quot;&gt;+ length: number&lt;/p&gt;&lt;p style=&quot;margin: 0px ; margin-left: 4px&quot;&gt;&lt;span&gt;+ height?: number&lt;/span&gt;&lt;/p&gt;" style="verticalAlign=top;align=left;overflow=fill;fontSize=12;fontFamily=Helvetica;html=1;fillColor=#EEEEEE;strokeColor=#FFFFFF;fontColor=#1A1A1A;" parent="EJkPmVfQsPTjMEE44-UA-1" vertex="1">
          <mxGeometry x="1003" y="-432" width="110" height="90" as="geometry" />
        </mxCell>
        <mxCell id="EJkPmVfQsPTjMEE44-UA-15" value="&lt;p style=&quot;margin: 0px ; margin-top: 4px ; text-align: center&quot;&gt;&lt;i&gt;&amp;lt;&amp;lt;Interface&amp;gt;&amp;gt;&lt;/i&gt;&lt;br&gt;&lt;b&gt;BoundingBoxReference&lt;/b&gt;&lt;/p&gt;&lt;hr size=&quot;1&quot;&gt;&lt;p style=&quot;margin: 0px 0px 0px 4px&quot;&gt;+ x: number&lt;/p&gt;&lt;p style=&quot;margin: 0px 0px 0px 4px&quot;&gt;+ y: number&lt;/p&gt;&lt;p style=&quot;margin: 0px 0px 0px 4px&quot;&gt;+ z: number&lt;/p&gt;&lt;p style=&quot;margin: 0px ; margin-left: 4px&quot;&gt;&lt;span&gt;+ theta?: number&lt;/span&gt;&lt;/p&gt;" style="verticalAlign=top;align=left;overflow=fill;fontSize=12;fontFamily=Helvetica;html=1;fillColor=#EEEEEE;strokeColor=#FFFFFF;fontColor=#1A1A1A;" parent="EJkPmVfQsPTjMEE44-UA-1" vertex="1">
          <mxGeometry x="1143" y="-432" width="145" height="100" as="geometry" />
        </mxCell>
        <mxCell id="EJkPmVfQsPTjMEE44-UA-17" value="&lt;p style=&quot;margin: 0px ; margin-top: 4px ; text-align: center&quot;&gt;&lt;i&gt;&amp;lt;&amp;lt;Interface&amp;gt;&amp;gt;&lt;/i&gt;&lt;br&gt;&lt;b&gt;SafetyStatus&lt;/b&gt;&lt;/p&gt;&lt;hr size=&quot;1&quot;&gt;&lt;p style=&quot;margin: 0px 0px 0px 4px&quot;&gt;+ eStop: &quot;NONE |&amp;nbsp;&lt;/p&gt;&lt;p style=&quot;margin: 0px 0px 0px 4px&quot;&gt;&amp;nbsp; &amp;nbsp; &amp;nbsp; &amp;nbsp; &amp;nbsp; &amp;nbsp; &amp;nbsp; &amp;nbsp;&quot;AUTOACK&quot; |&amp;nbsp;&lt;/p&gt;&lt;p style=&quot;margin: 0px 0px 0px 4px&quot;&gt;&amp;nbsp; &amp;nbsp; &amp;nbsp; &amp;nbsp; &amp;nbsp; &amp;nbsp; &amp;nbsp; &amp;nbsp;&quot;MANUAL&quot; |&lt;/p&gt;&lt;p style=&quot;margin: 0px 0px 0px 4px&quot;&gt;&amp;nbsp; &amp;nbsp; &amp;nbsp; &amp;nbsp; &amp;nbsp; &amp;nbsp; &amp;nbsp; &amp;nbsp;&quot;REMOTE&quot;&lt;/p&gt;&lt;p style=&quot;margin: 0px 0px 0px 4px&quot;&gt;+ fieldViolation: boolean&lt;/p&gt;" style="verticalAlign=top;align=left;overflow=fill;fontSize=12;fontFamily=Helvetica;html=1;fillColor=#EEEEEE;strokeColor=#FFFFFF;fontColor=#1A1A1A;" parent="EJkPmVfQsPTjMEE44-UA-1" vertex="1">
          <mxGeometry x="1178" y="-735" width="140" height="125" as="geometry" />
        </mxCell>
        <mxCell id="EJkPmVfQsPTjMEE44-UA-18" value="&lt;p style=&quot;margin: 0px ; margin-top: 4px ; text-align: center&quot;&gt;&lt;i&gt;&amp;lt;&amp;lt;Interface&amp;gt;&amp;gt;&lt;/i&gt;&lt;br&gt;&lt;b&gt;Velocity&lt;/b&gt;&lt;/p&gt;&lt;hr size=&quot;1&quot;&gt;&lt;p style=&quot;margin: 0px 0px 0px 4px&quot;&gt;+ vx?: number&lt;/p&gt;&lt;p style=&quot;margin: 0px 0px 0px 4px&quot;&gt;+ vy?: number&lt;/p&gt;&lt;p style=&quot;margin: 0px ; margin-left: 4px&quot;&gt;&lt;span&gt;+ omega?: number&lt;/span&gt;&lt;/p&gt;" style="verticalAlign=top;align=left;overflow=fill;fontSize=12;fontFamily=Helvetica;html=1;fillColor=#EEEEEE;strokeColor=#FFFFFF;fontColor=#1A1A1A;" parent="EJkPmVfQsPTjMEE44-UA-1" vertex="1">
          <mxGeometry x="733" y="-482" width="110" height="95" as="geometry" />
        </mxCell>
        <mxCell id="EJkPmVfQsPTjMEE44-UA-19" value="&lt;p style=&quot;margin: 0px ; margin-top: 4px ; text-align: center&quot;&gt;&lt;i&gt;&amp;lt;&amp;lt;Interface&amp;gt;&amp;gt;&lt;/i&gt;&lt;br&gt;&lt;b&gt;Visualization&lt;/b&gt;&lt;/p&gt;&lt;hr size=&quot;1&quot;&gt;&lt;p style=&quot;margin: 0px 0px 0px 4px&quot;&gt;+ agvPosition?: AgvPosition&lt;/p&gt;&lt;p style=&quot;margin: 0px 0px 0px 4px&quot;&gt;+ velocity?: Velocity&lt;/p&gt;" style="verticalAlign=top;align=left;overflow=fill;fontSize=12;fontFamily=Helvetica;html=1;fillColor=#dae8fc;strokeColor=#6c8ebf;" parent="EJkPmVfQsPTjMEE44-UA-1" vertex="1">
          <mxGeometry x="200" y="-500" width="170" height="80" as="geometry" />
        </mxCell>
        <mxCell id="o4h-oAPnYzBLTwXeHfls-0" value="&lt;p style=&quot;margin: 0px ; margin-top: 4px ; text-align: center&quot;&gt;&lt;i&gt;&amp;lt;&amp;lt;Interface&amp;gt;&amp;gt;&lt;/i&gt;&lt;br&gt;&lt;b&gt;Header&lt;/b&gt;&lt;/p&gt;&lt;hr size=&quot;1&quot;&gt;&lt;p style=&quot;margin: 0px ; margin-left: 4px&quot;&gt;+ headerId: number&lt;br&gt;+ manufacturerName: string&lt;/p&gt;&lt;p style=&quot;margin: 0px ; margin-left: 4px&quot;&gt;+ seralNumber: string&lt;/p&gt;&lt;p style=&quot;margin: 0px ; margin-left: 4px&quot;&gt;+ timestamp: strin&lt;span&gt;g&lt;/span&gt;&lt;/p&gt;&lt;p style=&quot;margin: 0px ; margin-left: 4px&quot;&gt;+ version: string&lt;/p&gt;&lt;hr size=&quot;1&quot;&gt;&lt;p style=&quot;margin: 0px ; margin-left: 4px&quot;&gt;&lt;br&gt;&lt;/p&gt;" style="verticalAlign=top;align=left;overflow=fill;fontSize=12;fontFamily=Helvetica;html=1;fillColor=#e1d5e7;strokeColor=#9673a6;" parent="EJkPmVfQsPTjMEE44-UA-1" vertex="1">
          <mxGeometry x="10" y="-890" width="160" height="120" as="geometry" />
        </mxCell>
        <mxCell id="If3c22Cp0fI0KmILxw1e-0" value="Extends" style="endArrow=block;endSize=16;endFill=0;html=1;shadow=0;exitX=0.5;exitY=0;exitDx=0;exitDy=0;labelBackgroundColor=#182E3E;strokeColor=#FFFFFF;fontColor=#FFFFFF;jumpStyle=none;" parent="EJkPmVfQsPTjMEE44-UA-1" edge="1">
          <mxGeometry x="-0.7333" y="-10" width="160" relative="1" as="geometry">
            <mxPoint x="200" y="-460" as="sourcePoint" />
            <mxPoint x="90" y="-770" as="targetPoint" />
            <Array as="points">
              <mxPoint x="200" y="-460" />
              <mxPoint x="90" y="-460" />
            </Array>
            <mxPoint as="offset" />
          </mxGeometry>
        </mxCell>
        <mxCell id="W4kfr5TFGHQ_lKFts9Vr-0" value="&lt;p style=&quot;margin: 0px ; margin-top: 4px ; text-align: center&quot;&gt;&lt;i&gt;&amp;lt;&amp;lt;Interface&amp;gt;&amp;gt;&lt;/i&gt;&lt;br&gt;&lt;b&gt;Connection&lt;/b&gt;&lt;/p&gt;&lt;hr size=&quot;1&quot;&gt;&lt;p style=&quot;margin: 0px 0px 0px 4px&quot;&gt;+ connectionState: &quot;ONLINE&quot; |&amp;nbsp;&lt;/p&gt;&lt;p style=&quot;margin: 0px 0px 0px 4px&quot;&gt;&amp;nbsp; &amp;nbsp; &amp;nbsp; &amp;nbsp; &amp;nbsp; &amp;nbsp; &amp;nbsp; &amp;nbsp; &amp;nbsp; &amp;nbsp; &amp;nbsp; &amp;nbsp; &amp;nbsp; &amp;nbsp; &amp;nbsp; &amp;nbsp;&quot;OFFLINE&quot; |&lt;/p&gt;&lt;p style=&quot;margin: 0px 0px 0px 4px&quot;&gt;&amp;nbsp; &amp;nbsp; &amp;nbsp; &amp;nbsp; &amp;nbsp; &amp;nbsp; &amp;nbsp; &amp;nbsp; &amp;nbsp; &amp;nbsp; &amp;nbsp; &amp;nbsp; &amp;nbsp; &amp;nbsp; &amp;nbsp; &amp;nbsp;&quot;CONNECTIONBROKEN&quot;&lt;/p&gt;" style="verticalAlign=top;align=left;overflow=fill;fontSize=12;fontFamily=Helvetica;html=1;fillColor=#dae8fc;strokeColor=#6c8ebf;" parent="EJkPmVfQsPTjMEE44-UA-1" vertex="1">
          <mxGeometry x="200" y="-390" width="260" height="90" as="geometry" />
        </mxCell>
        <mxCell id="W4kfr5TFGHQ_lKFts9Vr-1" value="Extends" style="endArrow=block;endSize=16;endFill=0;html=1;shadow=0;labelBackgroundColor=#182E3E;strokeColor=#FFFFFF;fontColor=#FFFFFF;jumpStyle=none;" parent="EJkPmVfQsPTjMEE44-UA-1" edge="1">
          <mxGeometry x="-0.7857" y="-10" width="160" relative="1" as="geometry">
            <mxPoint x="200" y="-350" as="sourcePoint" />
            <mxPoint x="90" y="-770" as="targetPoint" />
            <Array as="points">
              <mxPoint x="200" y="-350" />
              <mxPoint x="90" y="-350" />
            </Array>
            <mxPoint as="offset" />
          </mxGeometry>
        </mxCell>
        <mxCell id="wut92a2AdnuUXbcSPP4P-2" value="Extends" style="endArrow=block;endSize=16;endFill=0;html=1;shadow=0;exitX=0.5;exitY=0;exitDx=0;exitDy=0;labelBackgroundColor=#182E3E;strokeColor=#FFFFFF;fontColor=#FFFFFF;jumpStyle=none;" parent="EJkPmVfQsPTjMEE44-UA-1" edge="1">
          <mxGeometry x="-0.5" y="-10" width="160" relative="1" as="geometry">
            <mxPoint x="200" y="-710" as="sourcePoint" />
            <mxPoint x="130" y="-770" as="targetPoint" />
            <Array as="points">
              <mxPoint x="200" y="-710" />
              <mxPoint x="130" y="-710" />
            </Array>
            <mxPoint as="offset" />
          </mxGeometry>
        </mxCell>
        <mxCell id="EC5Tzv9Fs5LoES-KQNgm-1" value="Use" style="endArrow=open;endSize=12;dashed=1;html=1;labelBackgroundColor=#182E3E;strokeColor=#FFFFFF;fontColor=#FFFFFF;exitX=1;exitY=0.25;exitDx=0;exitDy=0;" parent="EJkPmVfQsPTjMEE44-UA-1" source="EJkPmVfQsPTjMEE44-UA-19" edge="1">
          <mxGeometry x="-0.021" y="-10" width="160" relative="1" as="geometry">
            <mxPoint x="558" y="-660" as="sourcePoint" />
            <mxPoint x="510" y="-480" as="targetPoint" />
            <mxPoint as="offset" />
          </mxGeometry>
        </mxCell>
        <mxCell id="EC5Tzv9Fs5LoES-KQNgm-4" value="" style="endArrow=none;dashed=1;html=1;" parent="EJkPmVfQsPTjMEE44-UA-1" edge="1">
          <mxGeometry width="50" height="50" relative="1" as="geometry">
            <mxPoint x="509" y="-290" as="sourcePoint" />
            <mxPoint x="509" y="-900" as="targetPoint" />
          </mxGeometry>
        </mxCell>
        <mxCell id="EC5Tzv9Fs5LoES-KQNgm-5" value="" style="endArrow=none;dashed=1;html=1;strokeColor=#FFFFFF;" parent="EJkPmVfQsPTjMEE44-UA-1" edge="1">
          <mxGeometry width="50" height="50" relative="1" as="geometry">
            <mxPoint x="510" y="-310" as="sourcePoint" />
            <mxPoint x="509" y="-900" as="targetPoint" />
          </mxGeometry>
        </mxCell>
        <mxCell id="EC5Tzv9Fs5LoES-KQNgm-6" value="Use" style="endArrow=open;endSize=12;dashed=1;html=1;labelBackgroundColor=#182E3E;strokeColor=#FFFFFF;fontColor=#FFFFFF;exitX=1;exitY=0.5;exitDx=0;exitDy=0;" parent="EJkPmVfQsPTjMEE44-UA-1" source="EJkPmVfQsPTjMEE44-UA-2" edge="1">
          <mxGeometry x="-0.1034" y="-15" width="160" relative="1" as="geometry">
            <mxPoint x="489" y="-720" as="sourcePoint" />
            <mxPoint x="509" y="-720" as="targetPoint" />
            <mxPoint as="offset" />
          </mxGeometry>
        </mxCell>
        <mxCell id="Xn3jXcvavuY9w536zLUW-0" value="&lt;p style=&quot;margin: 0px ; margin-top: 4px ; text-align: center&quot;&gt;&lt;i&gt;&amp;lt;&amp;lt;Interface&amp;gt;&amp;gt;&lt;/i&gt;&lt;br&gt;&lt;b&gt;Factsheet&lt;/b&gt;&lt;/p&gt;&lt;hr size=&quot;1&quot;&gt;&lt;p style=&quot;margin: 0px 0px 0px 4px&quot;&gt;&lt;/p&gt;+ agvGeometry?: AgvGeometry&lt;br&gt;+&amp;nbsp;loadSpecification?: LoadSpecification&lt;br&gt;+ localizationParameters?: number&lt;br&gt;+ physicalParameters?: PhysicalParameters&lt;br&gt;+ protocolFeatures?: ProtocolFeatures&lt;br&gt;+&amp;nbsp;protocolLimits?: ProtocolLimits;&lt;br&gt;+&amp;nbsp;typeSpecification?: TypeSpecification;" style="verticalAlign=top;align=left;overflow=fill;fontSize=12;fontFamily=Helvetica;html=1;fillColor=#dae8fc;strokeColor=#6c8ebf;" vertex="1" parent="EJkPmVfQsPTjMEE44-UA-1">
          <mxGeometry x="200" y="-270" width="260" height="150" as="geometry" />
        </mxCell>
        <mxCell id="Xn3jXcvavuY9w536zLUW-2" value="Extends" style="endArrow=block;endSize=16;endFill=0;html=1;shadow=0;exitX=0.5;exitY=0;exitDx=0;exitDy=0;labelBackgroundColor=#182E3E;strokeColor=#FFFFFF;fontColor=#FFFFFF;jumpStyle=none;" edge="1" parent="EJkPmVfQsPTjMEE44-UA-1">
          <mxGeometry x="-0.8148" y="-8" width="160" relative="1" as="geometry">
            <mxPoint x="200" y="-232" as="sourcePoint" />
            <mxPoint x="90" y="-770" as="targetPoint" />
            <Array as="points">
              <mxPoint x="200" y="-232" />
              <mxPoint x="90" y="-232" />
            </Array>
            <mxPoint as="offset" />
          </mxGeometry>
        </mxCell>
        <mxCell id="cFJySQidLKvvZQMG3laM-0" value="" style="edgeStyle=none;orthogonalLoop=1;jettySize=auto;html=1;rounded=0;" edge="1" parent="EJkPmVfQsPTjMEE44-UA-1">
          <mxGeometry width="100" relative="1" as="geometry">
            <mxPoint x="-10" y="-90" as="sourcePoint" />
            <mxPoint x="90" y="-90" as="targetPoint" />
            <Array as="points" />
          </mxGeometry>
        </mxCell>
      </root>
    </mxGraphModel>
  </diagram>
  <diagram name="vda-5050-object-types-3 (factsheet)" id="6oZW1X3Kk0u02vDKcmMk">
    <mxGraphModel dx="3034" dy="1744" grid="1" gridSize="10" guides="1" tooltips="1" connect="1" arrows="1" fold="1" page="1" pageScale="1" pageWidth="1600" pageHeight="900" background="#000028" math="0" shadow="0">
      <root>
        <mxCell id="b58FyYwp22eRr0RSRqYd-0" />
        <mxCell id="b58FyYwp22eRr0RSRqYd-1" parent="b58FyYwp22eRr0RSRqYd-0" />
        <mxCell id="b58FyYwp22eRr0RSRqYd-3" value="&lt;p style=&quot;margin: 0px ; margin-top: 4px ; text-align: center&quot;&gt;&lt;i&gt;&amp;lt;&amp;lt;Interface&amp;gt;&amp;gt;&lt;/i&gt;&lt;br&gt;&lt;b&gt;AgvGeometry&lt;/b&gt;&lt;br&gt;&lt;/p&gt;&lt;hr size=&quot;1&quot;&gt;&lt;p style=&quot;margin: 0px ; margin-left: 4px&quot;&gt;&lt;/p&gt;&amp;nbsp;+ envelopes2d?: Envelopes2D[]&lt;p style=&quot;margin: 0px ; margin-left: 4px&quot;&gt;+ envelopes3d?: Envelopes3D[]&lt;/p&gt;&amp;nbsp;+ wheelDefinitions?: WheelDefinition[]&lt;br&gt;&lt;p style=&quot;margin: 0px ; margin-left: 4px&quot;&gt;&lt;/p&gt;&lt;p style=&quot;margin: 0px ; margin-left: 4px&quot;&gt;&lt;br&gt;&lt;/p&gt;" style="verticalAlign=top;align=left;overflow=fill;fontSize=12;fontFamily=Helvetica;html=1;fillColor=#EEEEEE;strokeColor=#FFFFFF;fontColor=#1A1A1A;" vertex="1" parent="b58FyYwp22eRr0RSRqYd-1">
          <mxGeometry x="538" y="-890" width="222" height="90" as="geometry" />
        </mxCell>
        <mxCell id="b58FyYwp22eRr0RSRqYd-5" value="&lt;p style=&quot;margin: 0px ; margin-top: 4px ; text-align: center&quot;&gt;&lt;i&gt;&amp;lt;&amp;lt;Interface&amp;gt;&amp;gt;&lt;/i&gt;&lt;br&gt;&lt;b&gt;AgvPosition&lt;/b&gt;&lt;/p&gt;&lt;hr size=&quot;1&quot;&gt;&lt;p style=&quot;margin: 0px 0px 0px 4px&quot;&gt;+ x: number&lt;/p&gt;&lt;p style=&quot;margin: 0px 0px 0px 4px&quot;&gt;+ y: number&lt;/p&gt;&lt;p style=&quot;margin: 0px ; margin-left: 4px&quot;&gt;&lt;span&gt;+ theta: number&lt;/span&gt;&lt;/p&gt;&lt;p style=&quot;margin: 0px ; margin-left: 4px&quot;&gt;+ mapId: string&lt;span&gt;&lt;br&gt;&lt;/span&gt;&lt;/p&gt;&lt;p style=&quot;margin: 0px ; margin-left: 4px&quot;&gt;+ mapDescription?: string&lt;br&gt;&lt;/p&gt;&lt;p style=&quot;margin: 0px ; margin-left: 4px&quot;&gt;+ positionInitialized: boolean&lt;/p&gt;&lt;p style=&quot;margin: 0px ; margin-left: 4px&quot;&gt;+ localizationScore?: number&lt;/p&gt;&lt;p style=&quot;margin: 0px ; margin-left: 4px&quot;&gt;+ deviationRange?: number&lt;/p&gt;" style="verticalAlign=top;align=left;overflow=fill;fontSize=12;fontFamily=Helvetica;html=1;fillColor=#EEEEEE;strokeColor=#FFFFFF;fontColor=#1A1A1A;" vertex="1" parent="b58FyYwp22eRr0RSRqYd-1">
          <mxGeometry x="538" y="-482" width="160" height="160" as="geometry" />
        </mxCell>
        <mxCell id="b58FyYwp22eRr0RSRqYd-6" value="&lt;p style=&quot;margin: 0px ; margin-top: 4px ; text-align: center&quot;&gt;&lt;i&gt;&amp;lt;&amp;lt;Interface&amp;gt;&amp;gt;&lt;/i&gt;&lt;br&gt;&lt;b&gt;BatteryState&lt;/b&gt;&lt;/p&gt;&lt;hr size=&quot;1&quot;&gt;&lt;p style=&quot;margin: 0px ; margin-left: 4px&quot;&gt;&lt;span&gt;+ batteryCharge: number&lt;/span&gt;&lt;/p&gt;&lt;p style=&quot;margin: 0px ; margin-left: 4px&quot;&gt;&lt;span&gt;+ batteryHealth?: number&lt;/span&gt;&lt;/p&gt;&lt;p style=&quot;margin: 0px ; margin-left: 4px&quot;&gt;&lt;span&gt;+ batteryVoltage?: number&lt;/span&gt;&lt;/p&gt;&lt;p style=&quot;margin: 0px ; margin-left: 4px&quot;&gt;&lt;span&gt;+ charging: boolean&lt;/span&gt;&lt;/p&gt;&lt;p style=&quot;margin: 0px ; margin-left: 4px&quot;&gt;&lt;span&gt;+ reach?: number&lt;/span&gt;&lt;/p&gt;" style="verticalAlign=top;align=left;overflow=fill;fontSize=12;fontFamily=Helvetica;html=1;fillColor=#EEEEEE;strokeColor=#FFFFFF;fontColor=#1A1A1A;" vertex="1" parent="b58FyYwp22eRr0RSRqYd-1">
          <mxGeometry x="1003" y="-735" width="150" height="120" as="geometry" />
        </mxCell>
        <mxCell id="b58FyYwp22eRr0RSRqYd-7" value="&lt;p style=&quot;margin: 0px ; margin-top: 4px ; text-align: center&quot;&gt;&lt;i&gt;&amp;lt;&amp;lt;Interface&amp;gt;&amp;gt;&lt;/i&gt;&lt;br&gt;&lt;b&gt;PolygonPoint&lt;/b&gt;&lt;br&gt;&lt;/p&gt;&lt;hr size=&quot;1&quot;&gt;&lt;p style=&quot;margin: 0px ; margin-left: 4px&quot;&gt;+&amp;nbsp;x: number&lt;/p&gt;&lt;p style=&quot;margin: 0px 0px 0px 4px&quot;&gt;+ y: number&lt;/p&gt;&lt;p style=&quot;margin: 0px ; margin-left: 4px&quot;&gt;&lt;br&gt;&lt;/p&gt;" style="verticalAlign=top;align=left;overflow=fill;fontSize=12;fontFamily=Helvetica;html=1;fillColor=#EEEEEE;strokeColor=#FFFFFF;fontColor=#1A1A1A;" vertex="1" parent="b58FyYwp22eRr0RSRqYd-1">
          <mxGeometry x="1040" y="-890" width="160" height="90" as="geometry" />
        </mxCell>
        <mxCell id="b58FyYwp22eRr0RSRqYd-8" value="&lt;p style=&quot;margin: 0px ; margin-top: 4px ; text-align: center&quot;&gt;&lt;i&gt;&amp;lt;&amp;lt;Interface&amp;gt;&amp;gt;&lt;/i&gt;&lt;br&gt;&lt;b&gt;Envelopes2D&lt;/b&gt;&lt;br&gt;&lt;/p&gt;&lt;hr size=&quot;1&quot;&gt;&lt;p style=&quot;margin: 0px ; margin-left: 4px&quot;&gt;&lt;span&gt;+ description?: string&lt;/span&gt;&lt;/p&gt;&amp;nbsp;+ polygonPoints: PolygonPoint[]&lt;p style=&quot;margin: 0px 0px 0px 4px&quot;&gt;+ set: string&lt;/p&gt;&lt;p style=&quot;margin: 0px ; margin-left: 4px&quot;&gt;&lt;br&gt;&lt;/p&gt;" style="verticalAlign=top;align=left;overflow=fill;fontSize=12;fontFamily=Helvetica;html=1;fillColor=#EEEEEE;strokeColor=#FFFFFF;fontColor=#1A1A1A;" vertex="1" parent="b58FyYwp22eRr0RSRqYd-1">
          <mxGeometry x="800" y="-890" width="200" height="90" as="geometry" />
        </mxCell>
        <mxCell id="b58FyYwp22eRr0RSRqYd-9" value="&lt;p style=&quot;margin: 0px ; margin-top: 4px ; text-align: center&quot;&gt;&lt;i&gt;&amp;lt;&amp;lt;Interface&amp;gt;&amp;gt;&lt;/i&gt;&lt;br&gt;&lt;b&gt;Error&lt;/b&gt;&lt;/p&gt;&lt;hr size=&quot;1&quot;&gt;&lt;p style=&quot;margin: 0px ; margin-left: 4px&quot;&gt;&lt;span&gt;+ errorType: string&lt;/span&gt;&lt;br&gt;&lt;/p&gt;&lt;p style=&quot;margin: 0px ; margin-left: 4px&quot;&gt;&lt;span&gt;+ errorLevel: &quot;WARNING&quot; | &quot;FATAL&quot;&lt;/span&gt;&lt;/p&gt;&lt;p style=&quot;margin: 0px 0px 0px 4px&quot;&gt;+ errorDescription?: string&lt;/p&gt;&lt;p style=&quot;margin: 0px ; margin-left: 4px&quot;&gt;+ errorReferences?: ErrorReference[]&lt;/p&gt;&lt;p style=&quot;margin: 0px ; margin-left: 4px&quot;&gt;&lt;br&gt;&lt;/p&gt;&lt;hr size=&quot;1&quot;&gt;&lt;p style=&quot;margin: 0px ; margin-left: 4px&quot;&gt;&lt;br&gt;&lt;/p&gt;" style="verticalAlign=top;align=left;overflow=fill;fontSize=12;fontFamily=Helvetica;html=1;fillColor=#EEEEEE;strokeColor=#FFFFFF;fontColor=#1A1A1A;" vertex="1" parent="b58FyYwp22eRr0RSRqYd-1">
          <mxGeometry x="538" y="-735" width="210" height="110" as="geometry" />
        </mxCell>
        <mxCell id="b58FyYwp22eRr0RSRqYd-10" value="&lt;p style=&quot;margin: 0px ; margin-top: 4px ; text-align: center&quot;&gt;&lt;i&gt;&amp;lt;&amp;lt;Interface&amp;gt;&amp;gt;&lt;/i&gt;&lt;br&gt;&lt;b&gt;ErrorReference&lt;/b&gt;&lt;/p&gt;&lt;hr size=&quot;1&quot;&gt;&lt;p style=&quot;margin: 0px ; margin-left: 4px&quot;&gt;&lt;span&gt;+ referenceKey: string&lt;/span&gt;&lt;br&gt;&lt;/p&gt;&lt;p style=&quot;margin: 0px ; margin-left: 4px&quot;&gt;&lt;span&gt;+ referenceValue: string&lt;/span&gt;&lt;/p&gt;" style="verticalAlign=top;align=left;overflow=fill;fontSize=12;fontFamily=Helvetica;html=1;fillColor=#EEEEEE;strokeColor=#FFFFFF;fontColor=#1A1A1A;" vertex="1" parent="b58FyYwp22eRr0RSRqYd-1">
          <mxGeometry x="538" y="-592" width="210" height="80" as="geometry" />
        </mxCell>
        <mxCell id="b58FyYwp22eRr0RSRqYd-11" value="&lt;p style=&quot;margin: 0px ; margin-top: 4px ; text-align: center&quot;&gt;&lt;i&gt;&amp;lt;&amp;lt;Interface&amp;gt;&amp;gt;&lt;/i&gt;&lt;br&gt;&lt;b&gt;Information&lt;/b&gt;&lt;/p&gt;&lt;hr size=&quot;1&quot;&gt;&lt;p style=&quot;margin: 0px ; margin-left: 4px&quot;&gt;&lt;span&gt;+ infoType: string&lt;/span&gt;&lt;br&gt;&lt;/p&gt;&lt;p style=&quot;margin: 0px ; margin-left: 4px&quot;&gt;&lt;span&gt;+ infoLevel: &quot;DEBUG&quot; | &quot;INFO&quot;&lt;/span&gt;&lt;/p&gt;&lt;p style=&quot;margin: 0px 0px 0px 4px&quot;&gt;+ infoDescription?: string&lt;/p&gt;&lt;p style=&quot;margin: 0px ; margin-left: 4px&quot;&gt;+ infoReferences?: ErrorReference[]&lt;/p&gt;&lt;p style=&quot;margin: 0px ; margin-left: 4px&quot;&gt;&lt;br&gt;&lt;/p&gt;&lt;hr size=&quot;1&quot;&gt;&lt;p style=&quot;margin: 0px ; margin-left: 4px&quot;&gt;&lt;br&gt;&lt;/p&gt;" style="verticalAlign=top;align=left;overflow=fill;fontSize=12;fontFamily=Helvetica;html=1;fillColor=#EEEEEE;strokeColor=#FFFFFF;fontColor=#1A1A1A;" vertex="1" parent="b58FyYwp22eRr0RSRqYd-1">
          <mxGeometry x="773" y="-735" width="200" height="110" as="geometry" />
        </mxCell>
        <mxCell id="b58FyYwp22eRr0RSRqYd-12" value="&lt;p style=&quot;margin: 0px ; margin-top: 4px ; text-align: center&quot;&gt;&lt;i&gt;&amp;lt;&amp;lt;Interface&amp;gt;&amp;gt;&lt;/i&gt;&lt;br&gt;&lt;b&gt;InfoReference&lt;/b&gt;&lt;/p&gt;&lt;hr size=&quot;1&quot;&gt;&lt;p style=&quot;margin: 0px ; margin-left: 4px&quot;&gt;&lt;span&gt;+ referenceKey: string&lt;/span&gt;&lt;br&gt;&lt;/p&gt;&lt;p style=&quot;margin: 0px ; margin-left: 4px&quot;&gt;&lt;span&gt;+ referenceValue: string&lt;/span&gt;&lt;/p&gt;" style="verticalAlign=top;align=left;overflow=fill;fontSize=12;fontFamily=Helvetica;html=1;fillColor=#EEEEEE;strokeColor=#FFFFFF;fontColor=#1A1A1A;" vertex="1" parent="b58FyYwp22eRr0RSRqYd-1">
          <mxGeometry x="773" y="-592" width="200" height="80" as="geometry" />
        </mxCell>
        <mxCell id="b58FyYwp22eRr0RSRqYd-13" value="&lt;p style=&quot;margin: 0px ; margin-top: 4px ; text-align: center&quot;&gt;&lt;i&gt;&amp;lt;&amp;lt;Interface&amp;gt;&amp;gt;&lt;/i&gt;&lt;br&gt;&lt;b&gt;Load&lt;/b&gt;&lt;/p&gt;&lt;hr size=&quot;1&quot;&gt;&lt;p style=&quot;margin: 0px 0px 0px 4px&quot;&gt;+ loadId?: string&lt;/p&gt;&lt;p style=&quot;margin: 0px 0px 0px 4px&quot;&gt;+ loadType?: string&lt;/p&gt;&lt;p style=&quot;margin: 0px ; margin-left: 4px&quot;&gt;&lt;span&gt;+ loadPosition?: string&lt;/span&gt;&lt;/p&gt;&lt;p style=&quot;margin: 0px ; margin-left: 4px&quot;&gt;+ weight?: string&lt;span&gt;&lt;br&gt;&lt;/span&gt;&lt;/p&gt;&lt;p style=&quot;margin: 0px ; margin-left: 4px&quot;&gt;+ loadDimensIons?: LoadDimensions&lt;br&gt;&lt;/p&gt;&lt;p style=&quot;margin: 0px ; margin-left: 4px&quot;&gt;+ boundingBoxReference?: BoundingBoxReference&lt;/p&gt;" style="verticalAlign=top;align=left;overflow=fill;fontSize=12;fontFamily=Helvetica;html=1;fillColor=#EEEEEE;strokeColor=#FFFFFF;fontColor=#1A1A1A;" vertex="1" parent="b58FyYwp22eRr0RSRqYd-1">
          <mxGeometry x="1003" y="-572" width="285" height="130" as="geometry" />
        </mxCell>
        <mxCell id="b58FyYwp22eRr0RSRqYd-14" value="&lt;p style=&quot;margin: 0px ; margin-top: 4px ; text-align: center&quot;&gt;&lt;i&gt;&amp;lt;&amp;lt;Interface&amp;gt;&amp;gt;&lt;/i&gt;&lt;br&gt;&lt;b&gt;LoadDimensions&lt;/b&gt;&lt;/p&gt;&lt;hr size=&quot;1&quot;&gt;&lt;p style=&quot;margin: 0px 0px 0px 4px&quot;&gt;+ width: number&lt;/p&gt;&lt;p style=&quot;margin: 0px 0px 0px 4px&quot;&gt;+ length: number&lt;/p&gt;&lt;p style=&quot;margin: 0px ; margin-left: 4px&quot;&gt;&lt;span&gt;+ height?: number&lt;/span&gt;&lt;/p&gt;" style="verticalAlign=top;align=left;overflow=fill;fontSize=12;fontFamily=Helvetica;html=1;fillColor=#EEEEEE;strokeColor=#FFFFFF;fontColor=#1A1A1A;" vertex="1" parent="b58FyYwp22eRr0RSRqYd-1">
          <mxGeometry x="1003" y="-432" width="110" height="90" as="geometry" />
        </mxCell>
        <mxCell id="b58FyYwp22eRr0RSRqYd-15" value="&lt;p style=&quot;margin: 0px ; margin-top: 4px ; text-align: center&quot;&gt;&lt;i&gt;&amp;lt;&amp;lt;Interface&amp;gt;&amp;gt;&lt;/i&gt;&lt;br&gt;&lt;b&gt;BoundingBoxReference&lt;/b&gt;&lt;/p&gt;&lt;hr size=&quot;1&quot;&gt;&lt;p style=&quot;margin: 0px 0px 0px 4px&quot;&gt;+ x: number&lt;/p&gt;&lt;p style=&quot;margin: 0px 0px 0px 4px&quot;&gt;+ y: number&lt;/p&gt;&lt;p style=&quot;margin: 0px 0px 0px 4px&quot;&gt;+ z: number&lt;/p&gt;&lt;p style=&quot;margin: 0px ; margin-left: 4px&quot;&gt;&lt;span&gt;+ theta?: number&lt;/span&gt;&lt;/p&gt;" style="verticalAlign=top;align=left;overflow=fill;fontSize=12;fontFamily=Helvetica;html=1;fillColor=#EEEEEE;strokeColor=#FFFFFF;fontColor=#1A1A1A;" vertex="1" parent="b58FyYwp22eRr0RSRqYd-1">
          <mxGeometry x="1143" y="-432" width="145" height="100" as="geometry" />
        </mxCell>
        <mxCell id="b58FyYwp22eRr0RSRqYd-16" value="&lt;p style=&quot;margin: 0px ; margin-top: 4px ; text-align: center&quot;&gt;&lt;i&gt;&amp;lt;&amp;lt;Interface&amp;gt;&amp;gt;&lt;/i&gt;&lt;br&gt;&lt;b&gt;SafetyStatus&lt;/b&gt;&lt;/p&gt;&lt;hr size=&quot;1&quot;&gt;&lt;p style=&quot;margin: 0px 0px 0px 4px&quot;&gt;+ eStop: &quot;NONE |&amp;nbsp;&lt;/p&gt;&lt;p style=&quot;margin: 0px 0px 0px 4px&quot;&gt;&amp;nbsp; &amp;nbsp; &amp;nbsp; &amp;nbsp; &amp;nbsp; &amp;nbsp; &amp;nbsp; &amp;nbsp;&quot;AUTOACK&quot; |&amp;nbsp;&lt;/p&gt;&lt;p style=&quot;margin: 0px 0px 0px 4px&quot;&gt;&amp;nbsp; &amp;nbsp; &amp;nbsp; &amp;nbsp; &amp;nbsp; &amp;nbsp; &amp;nbsp; &amp;nbsp;&quot;MANUAL&quot; |&lt;/p&gt;&lt;p style=&quot;margin: 0px 0px 0px 4px&quot;&gt;&amp;nbsp; &amp;nbsp; &amp;nbsp; &amp;nbsp; &amp;nbsp; &amp;nbsp; &amp;nbsp; &amp;nbsp;&quot;REMOTE&quot;&lt;/p&gt;&lt;p style=&quot;margin: 0px 0px 0px 4px&quot;&gt;+ fieldViolation: boolean&lt;/p&gt;" style="verticalAlign=top;align=left;overflow=fill;fontSize=12;fontFamily=Helvetica;html=1;fillColor=#EEEEEE;strokeColor=#FFFFFF;fontColor=#1A1A1A;" vertex="1" parent="b58FyYwp22eRr0RSRqYd-1">
          <mxGeometry x="1178" y="-735" width="140" height="125" as="geometry" />
        </mxCell>
        <mxCell id="b58FyYwp22eRr0RSRqYd-17" value="&lt;p style=&quot;margin: 0px ; margin-top: 4px ; text-align: center&quot;&gt;&lt;i&gt;&amp;lt;&amp;lt;Interface&amp;gt;&amp;gt;&lt;/i&gt;&lt;br&gt;&lt;b&gt;Velocity&lt;/b&gt;&lt;/p&gt;&lt;hr size=&quot;1&quot;&gt;&lt;p style=&quot;margin: 0px 0px 0px 4px&quot;&gt;+ vx?: number&lt;/p&gt;&lt;p style=&quot;margin: 0px 0px 0px 4px&quot;&gt;+ vy?: number&lt;/p&gt;&lt;p style=&quot;margin: 0px ; margin-left: 4px&quot;&gt;&lt;span&gt;+ omega?: number&lt;/span&gt;&lt;/p&gt;" style="verticalAlign=top;align=left;overflow=fill;fontSize=12;fontFamily=Helvetica;html=1;fillColor=#EEEEEE;strokeColor=#FFFFFF;fontColor=#1A1A1A;" vertex="1" parent="b58FyYwp22eRr0RSRqYd-1">
          <mxGeometry x="733" y="-482" width="110" height="95" as="geometry" />
        </mxCell>
        <mxCell id="b58FyYwp22eRr0RSRqYd-19" value="&lt;p style=&quot;margin: 0px ; margin-top: 4px ; text-align: center&quot;&gt;&lt;i&gt;&amp;lt;&amp;lt;Interface&amp;gt;&amp;gt;&lt;/i&gt;&lt;br&gt;&lt;b&gt;Header&lt;/b&gt;&lt;/p&gt;&lt;hr size=&quot;1&quot;&gt;&lt;p style=&quot;margin: 0px ; margin-left: 4px&quot;&gt;+ headerId: number&lt;br&gt;+ manufacturerName: string&lt;/p&gt;&lt;p style=&quot;margin: 0px ; margin-left: 4px&quot;&gt;+ seralNumber: string&lt;/p&gt;&lt;p style=&quot;margin: 0px ; margin-left: 4px&quot;&gt;+ timestamp: strin&lt;span&gt;g&lt;/span&gt;&lt;/p&gt;&lt;p style=&quot;margin: 0px ; margin-left: 4px&quot;&gt;+ version: string&lt;/p&gt;&lt;hr size=&quot;1&quot;&gt;&lt;p style=&quot;margin: 0px ; margin-left: 4px&quot;&gt;&lt;br&gt;&lt;/p&gt;" style="verticalAlign=top;align=left;overflow=fill;fontSize=12;fontFamily=Helvetica;html=1;fillColor=#e1d5e7;strokeColor=#9673a6;" vertex="1" parent="b58FyYwp22eRr0RSRqYd-1">
          <mxGeometry x="10" y="-890" width="160" height="120" as="geometry" />
        </mxCell>
        <mxCell id="b58FyYwp22eRr0RSRqYd-25" value="" style="endArrow=none;dashed=1;html=1;" edge="1" parent="b58FyYwp22eRr0RSRqYd-1">
          <mxGeometry width="50" height="50" relative="1" as="geometry">
            <mxPoint x="509" y="-290" as="sourcePoint" />
            <mxPoint x="509" y="-900" as="targetPoint" />
          </mxGeometry>
        </mxCell>
        <mxCell id="b58FyYwp22eRr0RSRqYd-26" value="" style="endArrow=none;dashed=1;html=1;strokeColor=#FFFFFF;" edge="1" parent="b58FyYwp22eRr0RSRqYd-1">
          <mxGeometry width="50" height="50" relative="1" as="geometry">
            <mxPoint x="509" y="-300" as="sourcePoint" />
            <mxPoint x="509" y="-900" as="targetPoint" />
          </mxGeometry>
        </mxCell>
        <mxCell id="b58FyYwp22eRr0RSRqYd-27" value="Use" style="endArrow=open;endSize=12;dashed=1;html=1;labelBackgroundColor=#182E3E;strokeColor=#FFFFFF;fontColor=#FFFFFF;" edge="1" parent="b58FyYwp22eRr0RSRqYd-1">
          <mxGeometry x="-0.1034" y="-15" width="160" relative="1" as="geometry">
            <mxPoint x="450" y="-800" as="sourcePoint" />
            <mxPoint x="510" y="-800" as="targetPoint" />
            <mxPoint as="offset" />
          </mxGeometry>
        </mxCell>
        <mxCell id="b58FyYwp22eRr0RSRqYd-28" value="&lt;p style=&quot;margin: 0px ; margin-top: 4px ; text-align: center&quot;&gt;&lt;i&gt;&amp;lt;&amp;lt;Interface&amp;gt;&amp;gt;&lt;/i&gt;&lt;br&gt;&lt;b&gt;Factsheet&lt;/b&gt;&lt;/p&gt;&lt;hr size=&quot;1&quot;&gt;&lt;p style=&quot;margin: 0px 0px 0px 4px&quot;&gt;&lt;/p&gt;&amp;nbsp;+ agvGeometry?: AgvGeometry&amp;nbsp;&lt;br&gt;&amp;nbsp;+&amp;nbsp;loadSpecification?: LoadSpecification&lt;br&gt;&amp;nbsp;+ localizationParameters?: number&lt;br&gt;&amp;nbsp;+ physicalParameters?: PhysicalParameters&lt;br&gt;&amp;nbsp;+ protocolFeatures?: ProtocolFeatures&lt;br&gt;&amp;nbsp;+&amp;nbsp;protocolLimits?: ProtocolLimits;&lt;br&gt;&amp;nbsp;+&amp;nbsp;typeSpecification?: TypeSpecification;" style="verticalAlign=top;align=left;overflow=fill;fontSize=12;fontFamily=Helvetica;html=1;fillColor=#dae8fc;strokeColor=#6c8ebf;" vertex="1" parent="b58FyYwp22eRr0RSRqYd-1">
          <mxGeometry x="190" y="-890" width="260" height="150" as="geometry" />
        </mxCell>
        <mxCell id="b58FyYwp22eRr0RSRqYd-30" value="" style="edgeStyle=none;orthogonalLoop=1;jettySize=auto;html=1;rounded=0;" edge="1" parent="b58FyYwp22eRr0RSRqYd-1">
          <mxGeometry width="100" relative="1" as="geometry">
            <mxPoint x="-10" y="-90" as="sourcePoint" />
            <mxPoint x="90" y="-90" as="targetPoint" />
            <Array as="points" />
          </mxGeometry>
        </mxCell>
        <mxCell id="RiWWyTlcgAqJ_3FnvIiJ-0" value="Extends" style="endArrow=block;endSize=16;endFill=0;html=1;shadow=0;exitX=0.5;exitY=0;exitDx=0;exitDy=0;labelBackgroundColor=#182E3E;strokeColor=#FFFFFF;fontColor=#FFFFFF;jumpStyle=none;entryX=0.5;entryY=1;entryDx=0;entryDy=0;" edge="1" parent="b58FyYwp22eRr0RSRqYd-1" target="b58FyYwp22eRr0RSRqYd-19">
          <mxGeometry x="-0.5" y="-10" width="160" relative="1" as="geometry">
            <mxPoint x="190" y="-750" as="sourcePoint" />
            <mxPoint x="120" y="-810" as="targetPoint" />
            <Array as="points">
              <mxPoint x="190" y="-750" />
              <mxPoint x="120" y="-750" />
            </Array>
            <mxPoint as="offset" />
          </mxGeometry>
        </mxCell>
      </root>
    </mxGraphModel>
  </diagram>
  <diagram id="fJ6_S-8qCdAy_4dO7izH" name="library-components">
    <mxGraphModel dx="1195" dy="703" grid="1" gridSize="10" guides="1" tooltips="1" connect="1" arrows="0" fold="1" page="1" pageScale="1" pageWidth="1600" pageHeight="900" background="#000028" math="0" shadow="0">
      <root>
        <mxCell id="0r5CbMox6KGlravvUgax-0" />
        <mxCell id="0r5CbMox6KGlravvUgax-1" parent="0r5CbMox6KGlravvUgax-0" />
        <mxCell id="cUKu4KnR3z2EN_MJpjvI-0" value="&lt;p style=&quot;margin: 0px ; margin-top: 4px ; text-align: center&quot;&gt;&lt;b&gt;&lt;i&gt;Client (abstract)&lt;/i&gt;&lt;/b&gt;&lt;/p&gt;&lt;hr size=&quot;1&quot;&gt;&lt;p style=&quot;margin: 0px ; margin-left: 4px&quot;&gt;+ clientId: string&lt;/p&gt;&lt;p style=&quot;margin: 0px ; margin-left: 4px&quot;&gt;+ debug: Debug.Debugger&lt;/p&gt;&lt;hr size=&quot;1&quot;&gt;&lt;p style=&quot;margin: 0px ; margin-left: 4px&quot;&gt;+ clientOptions(): ClientOptions&lt;/p&gt;&lt;p style=&quot;margin: 0px ; margin-left: 4px&quot;&gt;+ protocolVersion(): string&lt;/p&gt;&lt;p style=&quot;margin: 0px ; margin-left: 4px&quot;&gt;+ createUuid(): string&lt;/p&gt;&lt;p style=&quot;margin: 0px ; margin-left: 4px&quot;&gt;+ async start(): Promise&amp;lt;void&amp;gt;&lt;/p&gt;&lt;p style=&quot;margin: 0px ; margin-left: 4px&quot;&gt;+ async stop(): Promise&amp;lt;void&amp;gt;&lt;/p&gt;&lt;p style=&quot;margin: 0px ; margin-left: 4px&quot;&gt;&lt;span&gt;# async publishTopic(topic: Topic, subject: AgvId, object: Headerless&amp;lt;TopicObject&amp;gt;, options: ClientPublishOptions): Promise&amp;lt;TopicObject&amp;gt;&lt;/span&gt;&lt;/p&gt;&lt;p style=&quot;margin: 0px ; margin-left: 4px&quot;&gt;# async subscribeTopic(topic: Topic, subject: Partial&amp;lt;AgvId&amp;gt;, handler: SubscriptionHandler): Promise&amp;lt;SubscriptionId&amp;gt;&lt;br&gt;&lt;/p&gt;&lt;p style=&quot;margin: 0px ; margin-left: 4px&quot;&gt;+ unsubscribe(subscriptionId: SubscriptionId): Promise&amp;lt;void&amp;gt;&lt;/p&gt;&lt;p style=&quot;margin: 0px ; margin-left: 4px&quot;&gt;+ registerConnectionStateChange(callback: ConnectionStateChangeCallback)&lt;/p&gt;&lt;p style=&quot;margin: 0px ; margin-left: 4px&quot;&gt;+ registerExtensionTopic(...)&lt;/p&gt;&lt;p style=&quot;margin: 0px ; margin-left: 4px&quot;&gt;# getProtocolVersion(): string&lt;/p&gt;&lt;p style=&quot;margin: 0px ; margin-left: 4px&quot;&gt;# onStarted(): void | Promise&amp;lt;void&amp;gt;&lt;/p&gt;&lt;p style=&quot;margin: 0px ; margin-left: 4px&quot;&gt;# onStopping(): void | Promise&amp;lt;void&amp;gt;&lt;/p&gt;&lt;p style=&quot;margin: 0px ; margin-left: 4px&quot;&gt;# getLastWillTopic(): { Topic, AgvId, Headerless&amp;lt;Vda5050Object&amp;gt;, retainMessage: boolean }&lt;/p&gt;&lt;p style=&quot;margin: 0px ; margin-left: 4px&quot;&gt;# validateTopicDirection(topic: Topic, forSubscription: boolean): void&lt;/p&gt;&lt;p style=&quot;margin: 0px ; margin-left: 4px&quot;&gt;# validateTopicObject(topic: Topic, object: Vda5050Object): void&lt;/p&gt;&lt;p style=&quot;margin: 0px ; margin-left: 4px&quot;&gt;# validateAgvId(agvId: Partial&amp;lt;AgvId&amp;gt;, forSubscription: boolean): void&lt;/p&gt;&lt;p style=&quot;margin: 0px ; margin-left: 4px&quot;&gt;&lt;br&gt;&lt;/p&gt;&lt;p style=&quot;margin: 0px ; margin-left: 4px&quot;&gt;&lt;br&gt;&lt;/p&gt;&lt;p style=&quot;margin: 0px ; margin-left: 4px&quot;&gt;&lt;br&gt;&lt;/p&gt;" style="verticalAlign=top;align=left;overflow=fill;fontSize=12;fontFamily=Helvetica;html=1;rounded=0;strokeColor=#FFFFFF;fillColor=#EEEEEE;" parent="0r5CbMox6KGlravvUgax-1" vertex="1">
          <mxGeometry x="460" y="70" width="740" height="320" as="geometry" />
        </mxCell>
        <mxCell id="cUKu4KnR3z2EN_MJpjvI-2" value="&lt;p style=&quot;margin: 0px ; margin-top: 4px ; text-align: center&quot;&gt;&lt;i&gt;&amp;lt;&amp;lt;Interface&amp;gt;&amp;gt;&lt;/i&gt;&lt;br&gt;&lt;b&gt;AgvId&lt;/b&gt;&lt;/p&gt;&lt;hr size=&quot;1&quot;&gt;&lt;p style=&quot;margin: 0px ; margin-left: 4px&quot;&gt;+ manufacturer: string&lt;br&gt;+ serialNumber: string&lt;/p&gt;&lt;p style=&quot;margin: 0px ; margin-left: 4px&quot;&gt;&lt;br&gt;&lt;/p&gt;" style="verticalAlign=top;align=left;overflow=fill;fontSize=12;fontFamily=Helvetica;html=1;rounded=0;" parent="0r5CbMox6KGlravvUgax-1" vertex="1">
          <mxGeometry x="1290" y="280" width="130" height="80" as="geometry" />
        </mxCell>
        <mxCell id="iAlfKzN5haht0gW1ZVic-0" value="&lt;p style=&quot;margin: 0px ; margin-top: 4px ; text-align: center&quot;&gt;&lt;i&gt;&amp;lt;&amp;lt;Enumeration&amp;gt;&amp;gt;&lt;/i&gt;&lt;br&gt;&lt;b&gt;Topic&lt;/b&gt;&lt;/p&gt;&lt;hr size=&quot;1&quot;&gt;&lt;p style=&quot;margin: 0px ; margin-left: 4px&quot;&gt;Order&lt;/p&gt;&lt;p style=&quot;margin: 0px ; margin-left: 4px&quot;&gt;InstantActions&lt;/p&gt;&lt;p style=&quot;margin: 0px ; margin-left: 4px&quot;&gt;&lt;span&gt;State&lt;/span&gt;&lt;/p&gt;&lt;p style=&quot;margin: 0px ; margin-left: 4px&quot;&gt;Visualization&lt;/p&gt;&lt;p style=&quot;margin: 0px ; margin-left: 4px&quot;&gt;Connection&lt;/p&gt;&lt;p style=&quot;margin: 0px ; margin-left: 4px&quot;&gt;Factsheet&lt;/p&gt;&lt;p style=&quot;margin: 0px ; margin-left: 4px&quot;&gt;&lt;/p&gt;&lt;p style=&quot;margin: 0px ; margin-left: 4px&quot;&gt;&lt;br&gt;&lt;/p&gt;" style="verticalAlign=top;align=left;overflow=fill;fontSize=12;fontFamily=Helvetica;html=1;labelBackgroundColor=none;" parent="0r5CbMox6KGlravvUgax-1" vertex="1">
          <mxGeometry x="1290" y="100" width="130" height="140" as="geometry" />
        </mxCell>
        <mxCell id="zK98a2zBUGpGu9UxyFXG-0" value="&lt;p style=&quot;margin: 0px ; margin-top: 4px ; text-align: center&quot;&gt;&lt;b&gt;MasterControlClient&lt;/b&gt;&lt;/p&gt;&lt;hr size=&quot;1&quot;&gt;&lt;p style=&quot;margin: 0px ; margin-left: 4px&quot;&gt;&lt;span&gt;+ async publishTopic(topic: Topic, subject: AgvId, object: Headerless&amp;lt;TopicObject&amp;gt;, options: ClientPublishOptions): Promise&amp;lt;TopicObject&amp;gt;&lt;/span&gt;&lt;/p&gt;&lt;p style=&quot;margin: 0px ; margin-left: 4px&quot;&gt;+ async subscribeTopic(topic: Topic, subject: Partial&amp;lt;AgvId&amp;gt;, handler: SubscriptionHandler): Promise&amp;lt;SubscriptionId&amp;gt;&lt;/p&gt;&lt;p style=&quot;margin: 0px ; margin-left: 4px&quot;&gt;+ trackAgvs(handler: (subject: AgvId, state: ConnectionState, timestamp: string) =&amp;gt; void): void&lt;/p&gt;&lt;p style=&quot;margin: 0px ; margin-left: 4px&quot;&gt;+ getTrackedState(subject: AgvId): { state: ConnectionState, timestamp: string }&lt;/p&gt;&lt;p style=&quot;margin: 0px ; margin-left: 4px&quot;&gt;+ getTrackedStates(): Array&amp;lt;{ subject: AgvId, state: ConnectionState, timestamp: string }&amp;gt;&lt;/p&gt;&lt;p style=&quot;margin: 0px ; margin-left: 4px&quot;&gt;# ...&lt;/p&gt;&lt;p style=&quot;margin: 0px ; margin-left: 4px&quot;&gt;&lt;br&gt;&lt;/p&gt;&lt;p style=&quot;margin: 0px ; margin-left: 4px&quot;&gt;&lt;br&gt;&lt;/p&gt;&lt;p style=&quot;margin: 0px ; margin-left: 4px&quot;&gt;&lt;br&gt;&lt;/p&gt;" style="verticalAlign=top;align=left;overflow=fill;fontSize=12;fontFamily=Helvetica;html=1;rounded=0;fillColor=#00557C;fontColor=#FFFFFF;strokeColor=none;" parent="0r5CbMox6KGlravvUgax-1" vertex="1">
          <mxGeometry x="10" y="420" width="750" height="120" as="geometry" />
        </mxCell>
        <mxCell id="zK98a2zBUGpGu9UxyFXG-2" value="&lt;p style=&quot;margin: 0px ; margin-top: 4px ; text-align: center&quot;&gt;&lt;b&gt;AgvClient&lt;/b&gt;&lt;/p&gt;&lt;hr size=&quot;1&quot;&gt;&lt;p style=&quot;margin: 0px ; margin-left: 4px&quot;&gt;+ async publishTopic(topic: Topic, subject: AgvId, object: Headerless&amp;lt;TopicObject&amp;gt;, options: ClientPublishOptions): Promise&amp;lt;TopicObject&amp;gt;&lt;/p&gt;&lt;p style=&quot;margin: 0px ; margin-left: 4px&quot;&gt;+ async subscribeTopic(topic: Topic, subject: Partial&amp;lt;AgvId&amp;gt;, handler: SubscriptionHandler): Promise&amp;lt;SubscriptionId&amp;gt;&lt;/p&gt;&lt;p style=&quot;margin: 0px ; margin-left: 4px&quot;&gt;# ...&lt;/p&gt;&lt;p style=&quot;margin: 0px ; margin-left: 4px&quot;&gt;&lt;br&gt;&lt;/p&gt;&lt;p style=&quot;margin: 0px ; margin-left: 4px&quot;&gt;&lt;br&gt;&lt;/p&gt;&lt;p style=&quot;margin: 0px ; margin-left: 4px&quot;&gt;&lt;br&gt;&lt;/p&gt;" style="verticalAlign=top;align=left;overflow=fill;fontSize=12;fontFamily=Helvetica;html=1;rounded=0;fillColor=#00557C;fontColor=#FFFFFF;strokeColor=none;" parent="0r5CbMox6KGlravvUgax-1" vertex="1">
          <mxGeometry x="800" y="420" width="740" height="80" as="geometry" />
        </mxCell>
        <mxCell id="zK98a2zBUGpGu9UxyFXG-3" value="&lt;p style=&quot;margin: 0px ; margin-top: 4px ; text-align: center&quot;&gt;&lt;i&gt;&amp;lt;&amp;lt;Interface&amp;gt;&amp;gt;&lt;/i&gt;&lt;br&gt;&lt;b&gt;ClientOptions&lt;/b&gt;&lt;/p&gt;&lt;hr size=&quot;1&quot;&gt;&lt;p style=&quot;margin: 0px ; margin-left: 4px&quot;&gt;+ interfaceName: string&lt;br&gt;+ topicObjectValidation: { inbound: boolean, outbound: boolean }&lt;/p&gt;&lt;p style=&quot;margin: 0px ; margin-left: 4px&quot;&gt;+ transportOptions: MqttTransportOptions&lt;/p&gt;&lt;p style=&quot;margin: 0px ; margin-left: 4px&quot;&gt;+ vdaVersion: { &quot;1.1.0&quot; | &quot;V2.0.0&quot; }&lt;/p&gt;&lt;p style=&quot;margin: 0px ; margin-left: 4px&quot;&gt;&lt;br&gt;&lt;/p&gt;&lt;p style=&quot;margin: 0px ; margin-left: 4px&quot;&gt;&lt;br&gt;&lt;/p&gt;" style="verticalAlign=top;align=left;overflow=fill;fontSize=12;fontFamily=Helvetica;html=1;rounded=0;strokeColor=#FFFFFF;fillColor=#EEEEEE;" parent="0r5CbMox6KGlravvUgax-1" vertex="1">
          <mxGeometry x="50" y="70" width="350" height="110" as="geometry" />
        </mxCell>
        <mxCell id="zK98a2zBUGpGu9UxyFXG-4" value="&lt;p style=&quot;margin: 0px ; margin-top: 4px ; text-align: center&quot;&gt;&lt;i&gt;&amp;lt;&amp;lt;Interface&amp;gt;&amp;gt;&lt;/i&gt;&lt;br&gt;&lt;b&gt;ClientPublishOptions&lt;/b&gt;&lt;/p&gt;&lt;hr size=&quot;1&quot;&gt;&lt;p style=&quot;margin: 0px ; margin-left: 4px&quot;&gt;+ dropIfOffline?: boolean&lt;br&gt;+ retainMessage?: boolean&lt;/p&gt;&lt;p style=&quot;margin: 0px ; margin-left: 4px&quot;&gt;&lt;br&gt;&lt;/p&gt;" style="verticalAlign=top;align=left;overflow=fill;fontSize=12;fontFamily=Helvetica;html=1;rounded=0;strokeColor=#FFFFFF;fillColor=#EEEEEE;" parent="0r5CbMox6KGlravvUgax-1" vertex="1">
          <mxGeometry x="250" y="198" width="150" height="80" as="geometry" />
        </mxCell>
        <mxCell id="zK98a2zBUGpGu9UxyFXG-5" value="&lt;p style=&quot;margin: 0px ; margin-top: 4px ; text-align: center&quot;&gt;&lt;i&gt;&amp;lt;&amp;lt;Interface&amp;gt;&amp;gt;&lt;/i&gt;&lt;br&gt;&lt;b&gt;MqttTransportOptions&lt;/b&gt;&lt;/p&gt;&lt;hr size=&quot;1&quot;&gt;&lt;p style=&quot;margin: 0px ; margin-left: 4px&quot;&gt;+ brokerUrl: string&lt;br&gt;+ topicFormat?: string&lt;/p&gt;&lt;p style=&quot;margin: 0px ; margin-left: 4px&quot;&gt;+ protocolVersion?: &quot;3.1.1&quot; | &quot;5.0&quot;&lt;/p&gt;&lt;p style=&quot;margin: 0px ; margin-left: 4px&quot;&gt;+ heartbeat?: number&lt;/p&gt;&lt;p style=&quot;margin: 0px ; margin-left: 4px&quot;&gt;+ reconnectPeriod?: number&lt;/p&gt;&lt;p style=&quot;margin: 0px ; margin-left: 4px&quot;&gt;+ connectTimeout?: number&lt;/p&gt;&lt;p style=&quot;margin: 0px ; margin-left: 4px&quot;&gt;+ username?: string&lt;/p&gt;&lt;p style=&quot;margin: 0px ; margin-left: 4px&quot;&gt;+ password?: string&lt;/p&gt;&lt;p style=&quot;margin: 0px ; margin-left: 4px&quot;&gt;+ tlsOptions?: { ... }&lt;/p&gt;&lt;p style=&quot;margin: 0px ; margin-left: 4px&quot;&gt;+ wsOptions?: { ... }&lt;/p&gt;&lt;p style=&quot;margin: 0px ; margin-left: 4px&quot;&gt;&lt;br&gt;&lt;/p&gt;&lt;p style=&quot;margin: 0px ; margin-left: 4px&quot;&gt;&lt;br&gt;&lt;/p&gt;&lt;p style=&quot;margin: 0px ; margin-left: 4px&quot;&gt;&lt;br&gt;&lt;/p&gt;&lt;p style=&quot;margin: 0px ; margin-left: 4px&quot;&gt;&lt;br&gt;&lt;/p&gt;&lt;p style=&quot;margin: 0px ; margin-left: 4px&quot;&gt;&lt;br&gt;&lt;/p&gt;&lt;p style=&quot;margin: 0px ; margin-left: 4px&quot;&gt;&lt;br&gt;&lt;/p&gt;" style="verticalAlign=top;align=left;overflow=fill;fontSize=12;fontFamily=Helvetica;html=1;rounded=0;strokeColor=#FFFFFF;fillColor=#EEEEEE;" parent="0r5CbMox6KGlravvUgax-1" vertex="1">
          <mxGeometry x="50" y="199" width="190" height="190" as="geometry" />
        </mxCell>
        <mxCell id="zK98a2zBUGpGu9UxyFXG-6" value="&lt;p style=&quot;margin: 0px ; margin-top: 4px ; text-align: center&quot;&gt;&lt;b&gt;MasterController&lt;/b&gt;&lt;/p&gt;&lt;hr size=&quot;1&quot;&gt;&lt;p style=&quot;margin: 0px ; margin-left: 4px&quot;&gt;+ async assignOrder(agvId: AgvId, order: Headerless&amp;lt;Order&amp;gt;, eventHandler: OrderEventHandler):&amp;nbsp;&lt;span&gt;Promise&amp;lt;Order&amp;gt;&lt;/span&gt;&lt;/p&gt;&lt;p style=&quot;margin: 0px ; margin-left: 4px&quot;&gt;+ async initiateInstantActions(agvId: AgvId, instantActions: Headerless&amp;lt;InstantActions&amp;gt;, eventHandler: InstantActionEventHandler):&amp;nbsp;&lt;/p&gt;&lt;p style=&quot;margin: 0px ; margin-left: 4px&quot;&gt;&lt;span&gt;&amp;nbsp; &amp;nbsp;Promise&amp;lt;InstantActions&amp;gt;&lt;/span&gt;&lt;/p&gt;&lt;p style=&quot;margin: 0px ; margin-left: 4px&quot;&gt;# ...&lt;/p&gt;&lt;p style=&quot;margin: 0px ; margin-left: 4px&quot;&gt;&lt;br&gt;&lt;/p&gt;&lt;p style=&quot;margin: 0px ; margin-left: 4px&quot;&gt;&lt;br&gt;&lt;/p&gt;&lt;p style=&quot;margin: 0px ; margin-left: 4px&quot;&gt;&lt;br&gt;&lt;/p&gt;" style="verticalAlign=top;align=left;overflow=fill;fontSize=12;fontFamily=Helvetica;html=1;rounded=0;fontColor=#FFFFFF;fillColor=#0087BE;whiteSpace=wrap;strokeColor=none;" parent="0r5CbMox6KGlravvUgax-1" vertex="1">
          <mxGeometry x="10" y="580" width="750" height="90" as="geometry" />
        </mxCell>
        <mxCell id="zK98a2zBUGpGu9UxyFXG-7" value="&lt;p style=&quot;margin: 0px ; margin-top: 4px ; text-align: center&quot;&gt;&lt;b&gt;AgvController&lt;/b&gt;&lt;/p&gt;&lt;hr size=&quot;1&quot;&gt;&lt;p style=&quot;margin: 0px ; margin-left: 4px&quot;&gt;+ updateAgvPositionVelocity&amp;nbsp;&amp;nbsp;&lt;span&gt;+ updateBatteryState&amp;nbsp; &amp;nbsp;&lt;/span&gt;&lt;span&gt;+ updateDrivingState&amp;nbsp; &amp;nbsp;+ updatePausedState&amp;nbsp; + updateSafetyStatus&amp;nbsp;&amp;nbsp;&lt;/span&gt;&lt;/p&gt;&lt;p style=&quot;margin: 0px ; margin-left: 4px&quot;&gt;&lt;span&gt;+ updateOperatingMode&amp;nbsp; + updateErrors&amp;nbsp; + updatePartialState&lt;/span&gt;&lt;/p&gt;&lt;p style=&quot;margin: 0px ; margin-left: 4px&quot;&gt;# ...&lt;/p&gt;&lt;p style=&quot;margin: 0px ; margin-left: 4px&quot;&gt;&lt;br&gt;&lt;/p&gt;&lt;p style=&quot;margin: 0px ; margin-left: 4px&quot;&gt;&lt;br&gt;&lt;/p&gt;&lt;p style=&quot;margin: 0px ; margin-left: 4px&quot;&gt;&lt;br&gt;&lt;/p&gt;" style="verticalAlign=top;align=left;overflow=fill;fontSize=12;fontFamily=Helvetica;html=1;rounded=0;fontColor=#FFFFFF;fillColor=#0087BE;strokeColor=none;" parent="0r5CbMox6KGlravvUgax-1" vertex="1">
          <mxGeometry x="800" y="540" width="740" height="80" as="geometry" />
        </mxCell>
        <mxCell id="paM9wTVEn3MoU57qvwiq-4" value="&lt;p style=&quot;margin: 0px ; margin-top: 4px ; text-align: center&quot;&gt;&lt;i&gt;&amp;lt;&amp;lt;Interface&amp;gt;&amp;gt;&lt;/i&gt;&lt;br&gt;&lt;b&gt;InstantActionEventHandler&lt;/b&gt;&lt;/p&gt;&lt;hr size=&quot;1&quot;&gt;&lt;p style=&quot;margin: 0px ; margin-left: 4px&quot;&gt;+ onActionStateChanged(actionState: ActionState, withError: Error, ...)&lt;/p&gt;&lt;p style=&quot;margin: 0px ; margin-left: 4px&quot;&gt;+ onActionError(error: Error, action: Action, ...)&lt;/p&gt;" style="verticalAlign=top;align=left;overflow=fill;fontSize=12;fontFamily=Helvetica;html=1;rounded=0;labelBackgroundColor=none;fillColor=#0087BE;fontColor=#FFFFFF;strokeColor=none;" parent="0r5CbMox6KGlravvUgax-1" vertex="1">
          <mxGeometry x="410" y="700" width="350" height="80" as="geometry" />
        </mxCell>
        <mxCell id="M_5stldw-55oJBGpnm3h-0" value="&lt;p style=&quot;margin: 0px ; margin-top: 4px ; text-align: center&quot;&gt;&lt;i&gt;&amp;lt;&amp;lt;Interface&amp;gt;&amp;gt;&lt;/i&gt;&lt;br&gt;&lt;b&gt;OrderEventHandler&lt;/b&gt;&lt;/p&gt;&lt;hr size=&quot;1&quot;&gt;&lt;p style=&quot;margin: 0px ; margin-left: 4px&quot;&gt;+ onOrderProcessed(withError: Error, byCancelation: boolean, active: ...)&lt;br&gt;+ onNodeTraversed?(node: Node, nextEdge: Edge, nextNode: Node, ...)&lt;/p&gt;&amp;nbsp;+ onEdgeTraversing?(edge: Edge, startNode: Node, endNode: Node, ...)&lt;p style=&quot;margin: 0px ; margin-left: 4px&quot;&gt;+ onEdgeTraversed?(edge: Edge, startNode: Node, endNode: Node, ...)&lt;/p&gt;&lt;p style=&quot;margin: 0px ; margin-left: 4px&quot;&gt;+ onActionStateChanged?(actionState: ActionState, withError: Error, ...)&lt;/p&gt;&lt;p style=&quot;margin: 0px ; margin-left: 4px&quot;&gt;&lt;br&gt;&lt;/p&gt;&lt;p style=&quot;margin: 0px ; margin-left: 4px&quot;&gt;&lt;br&gt;&lt;/p&gt;" style="verticalAlign=top;align=left;overflow=fill;fontSize=12;fontFamily=Helvetica;html=1;rounded=0;labelBackgroundColor=none;fillColor=#0087BE;fontColor=#FFFFFF;strokeColor=none;" parent="0r5CbMox6KGlravvUgax-1" vertex="1">
          <mxGeometry x="10" y="700" width="390" height="120" as="geometry" />
        </mxCell>
        <mxCell id="M_5stldw-55oJBGpnm3h-1" value="&lt;p style=&quot;margin: 0px ; margin-top: 4px ; text-align: center&quot;&gt;&lt;i&gt;&amp;lt;&amp;lt;Interface&amp;gt;&amp;gt;&lt;/i&gt;&lt;br&gt;&lt;b&gt;AgvControllerOptions&lt;/b&gt;&lt;/p&gt;&lt;hr size=&quot;1&quot;&gt;&lt;p style=&quot;margin: 0px ; margin-left: 4px&quot;&gt;+ agvAdapterType: AgvAdapterConstructor&lt;/p&gt;&lt;p style=&quot;margin: 0px ; margin-left: 4px&quot;&gt;+ publishStateInterval?: number&lt;br&gt;+ publishVisualizationInterval?: number&lt;/p&gt;&lt;p style=&quot;margin: 0px ; margin-left: 4px&quot;&gt;+ finalInstantActionsStateChangePublishCount?:&amp;nbsp;&lt;/p&gt;&lt;p style=&quot;margin: 0px ; margin-left: 4px&quot;&gt;&amp;nbsp; &amp;nbsp;number&lt;/p&gt;&lt;p style=&quot;margin: 0px ; margin-left: 4px&quot;&gt;&lt;br&gt;&lt;/p&gt;" style="verticalAlign=top;align=left;overflow=fill;fontSize=12;fontFamily=Helvetica;html=1;rounded=0;labelBackgroundColor=none;fillColor=#0087BE;fontColor=#FFFFFF;strokeColor=none;" parent="0r5CbMox6KGlravvUgax-1" vertex="1">
          <mxGeometry x="1270" y="650" width="270" height="120" as="geometry" />
        </mxCell>
        <mxCell id="YjE8AbRQqfrc3Ugp8pOB-0" value="&lt;p style=&quot;margin: 0px ; margin-top: 4px ; text-align: center&quot;&gt;&lt;i&gt;&amp;lt;&amp;lt;Interface&amp;gt;&amp;gt;&lt;/i&gt;&lt;br&gt;&lt;b&gt;AgvAdapterOptions&lt;/b&gt;&lt;/p&gt;&lt;hr size=&quot;1&quot;&gt;&lt;p style=&quot;margin: 0px ; margin-left: 4px&quot;&gt;&lt;i&gt;empty; to be extended by&lt;br&gt;specific adapter types&lt;/i&gt;&lt;/p&gt;&lt;p style=&quot;margin: 0px ; margin-left: 4px&quot;&gt;&lt;br&gt;&lt;/p&gt;" style="verticalAlign=top;align=left;overflow=fill;fontSize=12;fontFamily=Helvetica;html=1;rounded=0;labelBackgroundColor=none;fontColor=#FFFFFF;strokeColor=none;fillColor=#66667E;" parent="0r5CbMox6KGlravvUgax-1" vertex="1">
          <mxGeometry x="1099" y="667" width="141" height="85" as="geometry" />
        </mxCell>
        <mxCell id="T_Nuzbuh_dNglGv7UOxa-1" value="Extends" style="endArrow=block;endSize=16;endFill=0;html=1;strokeColor=#FFFFFF;fontColor=#FFFFFF;labelBackgroundColor=#182E3E;exitX=0.492;exitY=0.022;exitDx=0;exitDy=0;entryX=1;entryY=0.25;entryDx=0;entryDy=0;exitPerimeter=0;" parent="0r5CbMox6KGlravvUgax-1" source="zK98a2zBUGpGu9UxyFXG-6" edge="1">
          <mxGeometry y="-40" width="160" relative="1" as="geometry">
            <mxPoint x="470" y="520" as="sourcePoint" />
            <mxPoint x="380" y="540" as="targetPoint" />
            <mxPoint as="offset" />
          </mxGeometry>
        </mxCell>
        <mxCell id="T_Nuzbuh_dNglGv7UOxa-2" value="Extends" style="endArrow=block;endSize=16;endFill=0;html=1;strokeColor=#FFFFFF;fontColor=#FFFFFF;labelBackgroundColor=#182E3E;exitX=0.5;exitY=0;exitDx=0;exitDy=0;entryX=1;entryY=0.25;entryDx=0;entryDy=0;" parent="0r5CbMox6KGlravvUgax-1" edge="1">
          <mxGeometry y="-40" width="160" relative="1" as="geometry">
            <mxPoint x="1169.5" y="540" as="sourcePoint" />
            <mxPoint x="1169.5" y="500" as="targetPoint" />
            <mxPoint as="offset" />
          </mxGeometry>
        </mxCell>
        <mxCell id="T_Nuzbuh_dNglGv7UOxa-3" value="Extends" style="endArrow=block;endSize=16;endFill=0;html=1;strokeColor=#FFFFFF;fontColor=#FFFFFF;labelBackgroundColor=#182E3E;exitX=0.5;exitY=0;exitDx=0;exitDy=0;" parent="0r5CbMox6KGlravvUgax-1" edge="1">
          <mxGeometry y="-40" width="160" relative="1" as="geometry">
            <mxPoint x="560" y="420" as="sourcePoint" />
            <mxPoint x="560" y="390" as="targetPoint" />
            <mxPoint as="offset" />
          </mxGeometry>
        </mxCell>
        <mxCell id="T_Nuzbuh_dNglGv7UOxa-4" value="Extends" style="endArrow=block;endSize=16;endFill=0;html=1;strokeColor=#FFFFFF;fontColor=#FFFFFF;labelBackgroundColor=#182E3E;exitX=0.5;exitY=0;exitDx=0;exitDy=0;entryX=1;entryY=0.25;entryDx=0;entryDy=0;" parent="0r5CbMox6KGlravvUgax-1" edge="1">
          <mxGeometry y="-40" width="160" relative="1" as="geometry">
            <mxPoint x="990" y="420" as="sourcePoint" />
            <mxPoint x="990" y="380" as="targetPoint" />
            <mxPoint as="offset" />
          </mxGeometry>
        </mxCell>
        <mxCell id="T_Nuzbuh_dNglGv7UOxa-5" value="Use" style="endArrow=open;endSize=12;dashed=1;html=1;labelBackgroundColor=#182E3E;strokeColor=#FFFFFF;fontColor=#FFFFFF;entryX=0.25;entryY=0;entryDx=0;entryDy=0;exitX=0.726;exitY=1.013;exitDx=0;exitDy=0;exitPerimeter=0;" parent="0r5CbMox6KGlravvUgax-1" edge="1">
          <mxGeometry x="0.0012" y="25" width="160" relative="1" as="geometry">
            <mxPoint x="1387.2399999999998" y="621.04" as="sourcePoint" />
            <mxPoint x="1387.5" y="650" as="targetPoint" />
            <mxPoint as="offset" />
          </mxGeometry>
        </mxCell>
        <mxCell id="T_Nuzbuh_dNglGv7UOxa-6" value="Use" style="endArrow=open;endSize=12;dashed=1;html=1;labelBackgroundColor=#182E3E;strokeColor=#FFFFFF;fontColor=#FFFFFF;entryX=1;entryY=0.5;entryDx=0;entryDy=0;" parent="0r5CbMox6KGlravvUgax-1" edge="1">
          <mxGeometry x="-0.0345" y="20" width="160" relative="1" as="geometry">
            <mxPoint x="458" y="148" as="sourcePoint" />
            <mxPoint x="400" y="148" as="targetPoint" />
            <mxPoint as="offset" />
          </mxGeometry>
        </mxCell>
        <mxCell id="T_Nuzbuh_dNglGv7UOxa-7" value="Use" style="endArrow=open;endSize=12;dashed=1;html=1;labelBackgroundColor=#182E3E;strokeColor=#FFFFFF;fontColor=#FFFFFF;entryX=0;entryY=0.5;entryDx=0;entryDy=0;exitX=0.75;exitY=1;exitDx=0;exitDy=0;" parent="0r5CbMox6KGlravvUgax-1" edge="1">
          <mxGeometry x="0.2327" y="20" width="160" relative="1" as="geometry">
            <mxPoint x="1050" y="706" as="sourcePoint" />
            <mxPoint x="1099" y="705.5" as="targetPoint" />
            <mxPoint as="offset" />
          </mxGeometry>
        </mxCell>
        <mxCell id="T_Nuzbuh_dNglGv7UOxa-8" value="Use" style="endArrow=open;endSize=12;dashed=1;html=1;labelBackgroundColor=#182E3E;strokeColor=#FFFFFF;fontColor=#FFFFFF;entryX=1;entryY=0.5;entryDx=0;entryDy=0;" parent="0r5CbMox6KGlravvUgax-1" edge="1">
          <mxGeometry x="-0.0345" y="20" width="160" relative="1" as="geometry">
            <mxPoint x="460" y="219.5" as="sourcePoint" />
            <mxPoint x="402" y="219.5" as="targetPoint" />
            <mxPoint as="offset" />
          </mxGeometry>
        </mxCell>
        <mxCell id="T_Nuzbuh_dNglGv7UOxa-9" value="Use" style="endArrow=open;endSize=12;dashed=1;html=1;labelBackgroundColor=#182E3E;strokeColor=#FFFFFF;fontColor=#FFFFFF;entryX=0.458;entryY=0.011;entryDx=0;entryDy=0;exitX=0.25;exitY=1;exitDx=0;exitDy=0;entryPerimeter=0;" parent="0r5CbMox6KGlravvUgax-1" source="zK98a2zBUGpGu9UxyFXG-3" target="zK98a2zBUGpGu9UxyFXG-5" edge="1">
          <mxGeometry x="-0.0345" y="20" width="160" relative="1" as="geometry">
            <mxPoint x="178" y="180" as="sourcePoint" />
            <mxPoint x="120" y="180" as="targetPoint" />
            <mxPoint as="offset" />
          </mxGeometry>
        </mxCell>
        <mxCell id="T_Nuzbuh_dNglGv7UOxa-11" value="Use" style="endArrow=open;endSize=12;dashed=1;html=1;labelBackgroundColor=#182E3E;strokeColor=#FFFFFF;fontColor=#FFFFFF;entryX=0;entryY=0.5;entryDx=0;entryDy=0;" parent="0r5CbMox6KGlravvUgax-1" target="cUKu4KnR3z2EN_MJpjvI-2" edge="1">
          <mxGeometry x="-0.0345" y="20" width="160" relative="1" as="geometry">
            <mxPoint x="1200" y="320" as="sourcePoint" />
            <mxPoint x="1320" y="350" as="targetPoint" />
            <mxPoint as="offset" />
          </mxGeometry>
        </mxCell>
        <mxCell id="T_Nuzbuh_dNglGv7UOxa-12" value="Use" style="endArrow=open;endSize=12;dashed=1;html=1;labelBackgroundColor=#182E3E;strokeColor=#FFFFFF;fontColor=#FFFFFF;entryX=0;entryY=0.5;entryDx=0;entryDy=0;exitX=1.003;exitY=0.616;exitDx=0;exitDy=0;exitPerimeter=0;" parent="0r5CbMox6KGlravvUgax-1" edge="1">
          <mxGeometry x="-0.0345" y="20" width="160" relative="1" as="geometry">
            <mxPoint x="1202.2199999999998" y="170.96000000000004" as="sourcePoint" />
            <mxPoint x="1290" y="170" as="targetPoint" />
            <mxPoint as="offset" />
          </mxGeometry>
        </mxCell>
        <mxCell id="T_Nuzbuh_dNglGv7UOxa-17" value="" style="endArrow=block;startArrow=block;endFill=1;startFill=1;html=1;labelBackgroundColor=#182E3E;strokeColor=#FFFFFF;fontColor=#FFFFFF;entryX=0.161;entryY=1.013;entryDx=0;entryDy=0;entryPerimeter=0;" parent="0r5CbMox6KGlravvUgax-1" target="zK98a2zBUGpGu9UxyFXG-7" edge="1">
          <mxGeometry width="160" relative="1" as="geometry">
            <mxPoint x="919" y="647" as="sourcePoint" />
            <mxPoint x="980" y="390" as="targetPoint" />
          </mxGeometry>
        </mxCell>
        <mxCell id="T_Nuzbuh_dNglGv7UOxa-18" value="1:1&amp;nbsp; by Dependency Injection" style="text;html=1;strokeColor=none;fillColor=none;align=center;verticalAlign=middle;whiteSpace=wrap;rounded=0;labelBackgroundColor=#182E3E;fontColor=#FFFFFF;" parent="0r5CbMox6KGlravvUgax-1" vertex="1">
          <mxGeometry x="909" y="626" width="191" height="20" as="geometry" />
        </mxCell>
        <mxCell id="T_Nuzbuh_dNglGv7UOxa-20" value="Use" style="endArrow=open;endSize=12;dashed=1;html=1;labelBackgroundColor=#182E3E;strokeColor=#FFFFFF;fontColor=#FFFFFF;exitX=0.232;exitY=1.011;exitDx=0;exitDy=0;exitPerimeter=0;" parent="0r5CbMox6KGlravvUgax-1" edge="1">
          <mxGeometry x="-0.0336" y="24" width="160" relative="1" as="geometry">
            <mxPoint x="200.68000000000006" y="670.99" as="sourcePoint" />
            <mxPoint x="201" y="700" as="targetPoint" />
            <mxPoint as="offset" />
          </mxGeometry>
        </mxCell>
        <mxCell id="T_Nuzbuh_dNglGv7UOxa-21" value="&lt;p style=&quot;margin: 0px ; margin-top: 4px ; text-align: center&quot;&gt;&lt;i&gt;&amp;lt;&amp;lt;Interface&amp;gt;&amp;gt;&lt;/i&gt;&lt;br&gt;&lt;b&gt;AgvAdapter&lt;/b&gt;&lt;/p&gt;&lt;hr size=&quot;1&quot;&gt;&lt;p style=&quot;margin: 0px 0px 0px 4px&quot;&gt;+ name: string&lt;/p&gt;&lt;p style=&quot;margin: 0px 0px 0px 4px&quot;&gt;+ apiVersion: string&lt;/p&gt;&lt;p style=&quot;margin: 0px 0px 0px 4px&quot;&gt;+ controller: AgvController&lt;/p&gt;&lt;hr size=&quot;1&quot;&gt;&lt;p style=&quot;margin: 0px 0px 0px 4px&quot;&gt;+ attach(context: AttachContext)&lt;/p&gt;&lt;p style=&quot;margin: 0px 0px 0px 4px&quot;&gt;+ detach(context: DetachContext)&lt;/p&gt;&lt;p style=&quot;margin: 0px 0px 0px 4px&quot;&gt;+ isActionExecutable(context: ActionContext)&lt;/p&gt;&lt;p style=&quot;margin: 0px 0px 0px 4px&quot;&gt;+ executeAction(context: ActionContext)&lt;/p&gt;&lt;p style=&quot;margin: 0px 0px 0px 4px&quot;&gt;+ cancelAction(context: ActionContext)&lt;/p&gt;&lt;p style=&quot;margin: 0px 0px 0px 4px&quot;&gt;+ finishEdgeAction(context: ActionContext)&lt;/p&gt;&lt;p style=&quot;margin: 0px 0px 0px 4px&quot;&gt;+ isNodeWithinDeviationRange(node: Node)&lt;/p&gt;&lt;p style=&quot;margin: 0px 0px 0px 4px&quot;&gt;+ isRouteTraversable(context: RouteContext)&lt;/p&gt;&lt;p style=&quot;margin: 0px 0px 0px 4px&quot;&gt;+ traverseEdge(context: TraverseEdgeContext)&lt;/p&gt;&lt;p style=&quot;margin: 0px 0px 0px 4px&quot;&gt;+ stopTraverse(context: StopTraverseContext)&lt;/p&gt;&lt;p style=&quot;margin: 0px 0px 0px 4px&quot;&gt;+ trajectory?(context: TrajectoryContext)&lt;/p&gt;" style="verticalAlign=top;align=left;overflow=fill;fontSize=12;fontFamily=Helvetica;html=1;rounded=0;labelBackgroundColor=none;fontColor=#FFFFFF;strokeColor=none;fillColor=#66667E;" parent="0r5CbMox6KGlravvUgax-1" vertex="1">
          <mxGeometry x="800" y="651" width="260" height="259" as="geometry" />
        </mxCell>
        <mxCell id="uxO3k9lFAux8Ot-kILPk-0" value="Use" style="endArrow=open;endSize=12;dashed=1;html=1;labelBackgroundColor=#182E3E;strokeColor=#FFFFFF;fontColor=#FFFFFF;exitX=0.232;exitY=1.011;exitDx=0;exitDy=0;exitPerimeter=0;" parent="0r5CbMox6KGlravvUgax-1" edge="1">
          <mxGeometry x="-0.0336" y="24" width="160" relative="1" as="geometry">
            <mxPoint x="579.6800000000001" y="670.99" as="sourcePoint" />
            <mxPoint x="580" y="700" as="targetPoint" />
            <mxPoint as="offset" />
          </mxGeometry>
        </mxCell>
      </root>
    </mxGraphModel>
  </diagram>
</mxfile>
